<svg xmlns="http://www.w3.org/2000/svg" width="504" height="504"><g fill="#2A303A"><path d="M50.5 496c-10.732 0-17.024 1.397-26.927 5.063l-1.784.662c-2.5.924-4.707 1.675-6.791 2.275h6.398c.361-.13.727-.264 1.099-.402.366-.135 1.614-.598 1.785-.66C33.976 499.348 40.043 498 50.5 498c10.374 0 15.516 1.222 24.875 4.928.965.383 1.888.74 2.778 1.072h6.287c-2.536-.731-5.19-1.691-8.315-2.928C66.547 497.278 61.168 496 50.5 496zM14.998 0C10.051 1.426 5.801 2 0 2v2c8.158 0 13.39-1.108 21.396-4h-6.398zM151.5 496c-10.732 0-17.024 1.397-26.927 5.063l-1.784.662c-2.5.924-4.707 1.675-6.791 2.275h6.398c.361-.13.727-.264 1.099-.402.366-.135 1.614-.598 1.785-.66 9.696-3.59 15.763-4.938 26.22-4.938 10.374 0 15.515 1.222 24.875 4.928.965.383 1.888.74 2.778 1.072h6.287c-2.536-.731-5.19-1.691-8.315-2.928-9.578-3.794-14.957-5.072-25.625-5.072zM122.396 0h-6.398c-4.947 1.426-9.197 2-14.998 2-6.911 0-11.5-.542-16.56-2h-6.287C86.091 2.966 91.407 4 101 4c8.157 0 13.39-1.108 21.396-4zM252 496c-10.626 0-16.855 1.397-26.66 5.063l-1.767.662c-2.475.924-4.66 1.675-6.724 2.275h6.335c.357-.13.72-.264 1.088-.402.363-.135 1.599-.598 1.768-.66 9.6-3.59 15.607-4.938 25.96-4.938 10.271 0 15.361 1.222 24.629 4.928.955.383 1.869.74 2.75 1.072h6.225c-2.511-.731-5.139-1.691-8.232-2.928C267.889 497.278 262.563 496 252 496zM223.184 0h-6.335c-4.898 1.426-9.105 2-14.849 2-6.911 0-11.499-.542-16.56-2h-6.287c7.938 2.966 13.254 4 22.847 4 8.077 0 13.258-1.108 21.184-4zm255.941 319.072C469.547 315.278 464.168 314 453.5 314c-10.732 0-17.024 1.397-26.927 5.063l-1.784.662c-2.5.924-4.707 1.675-6.791 2.275-4.947 1.497-9.197 2.1-14.998 2.1-6.911 0-11.499-.568-16.561-2.1-2.535-.731-5.189-1.691-8.314-2.928-9.578-3.794-14.957-5.072-25.625-5.072-10.732 0-17.023 1.397-26.927 5.063l-1.784.662c-2.5.924-4.707 1.675-6.791 2.275-4.947 1.497-9.197 2.1-14.998 2.1-6.842 0-11.386-.568-16.396-2.1-2.511-.731-5.139-1.691-8.232-2.928C267.889 315.278 262.563 314 252 314c-10.626 0-16.855 1.397-26.66 5.063l-1.767.662c-2.475.924-4.66 1.675-6.724 2.275-4.898 1.497-9.105 2.1-14.849 2.1-6.911 0-11.499-.568-16.56-2.1-2.536-.731-5.19-1.691-8.315-2.928-9.578-3.794-14.957-5.072-25.625-5.072-10.732 0-17.024 1.397-26.927 5.063l-1.784.662c-2.5.924-4.707 1.675-6.791 2.275-4.947 1.497-9.197 2.1-14.998 2.1-6.911 0-11.5-.568-16.56-2.1-2.536-.731-5.19-1.691-8.315-2.928C66.547 315.278 61.168 314 50.5 314c-10.732 0-17.024 1.397-26.927 5.063l-1.784.662c-2.5.924-4.707 1.675-6.791 2.275-4.947 1.497-9.197 2.1-14.998 2.1v2.101c8.158 0 13.39-1.163 21.396-4.2.361-.13.727-.264 1.099-.402.366-.135 1.614-.598 1.785-.66C33.976 317.348 40.043 316 50.5 316c10.374 0 15.516 1.222 24.875 4.928.965.383 1.888.74 2.778 1.072 7.938 3.115 13.254 4.2 22.847 4.2 8.157 0 13.39-1.163 21.396-4.2.361-.13.727-.264 1.099-.402.366-.135 1.614-.598 1.785-.66 9.696-3.59 15.763-4.938 26.22-4.938 10.374 0 15.515 1.222 24.875 4.928.965.383 1.888.74 2.778 1.072 7.938 3.115 13.254 4.2 22.847 4.2 8.077 0 13.258-1.163 21.184-4.2.357-.13.72-.264 1.088-.402.363-.135 1.599-.598 1.768-.66 9.6-3.59 15.607-4.938 25.96-4.938 10.271 0 15.361 1.222 24.629 4.928.955.383 1.869.74 2.75 1.072 7.86 3.115 13.123 4.2 22.621 4.2 8.157 0 13.391-1.163 21.396-4.2.36-.13.727-.264 1.099-.402l1.784-.66c9.697-3.59 15.764-4.938 26.221-4.938 10.374 0 15.516 1.222 24.875 4.928.965.383 1.889.74 2.777 1.072 7.938 3.115 13.255 4.2 22.848 4.2 8.157 0 13.391-1.163 21.396-4.2.36-.13.727-.264 1.099-.402.366-.135 1.614-.598 1.785-.66 9.695-3.59 15.763-4.938 26.22-4.938 10.374 0 15.515 1.222 24.875 4.928.965.383 1.888.74 2.778 1.072 7.938 3.115 13.254 4.2 22.847 4.2v-2.1c-6.911 0-11.499-.568-16.56-2.1-2.536-.731-5.19-1.691-8.315-2.928z"/><path d="M453.5 304c-10.732 0-17.024 1.397-26.927 5.063l-1.784.662C416.355 312.84 411.245 314 403 314c-10.374 0-15.516-1.222-24.875-4.928-9.578-3.794-14.957-5.072-25.625-5.072-10.732 0-17.023 1.397-26.927 5.063l-1.784.662C315.355 312.84 310.245 314 302 314c-10.271 0-15.361-1.222-24.629-4.928C267.889 305.278 262.563 304 252 304c-10.626 0-16.855 1.397-26.66 5.063l-1.767.662C215.224 312.84 210.164 314 202 314c-10.374 0-15.515-1.222-24.875-4.928-9.578-3.794-14.957-5.072-25.625-5.072-10.732 0-17.024 1.397-26.927 5.063l-1.784.662C114.356 312.84 109.245 314 101 314c-10.374 0-15.516-1.222-24.875-4.928C66.547 305.278 61.168 304 50.5 304c-10.732 0-17.024 1.397-26.927 5.063l-1.784.662C13.356 312.84 8.245 314 0 314v2c8.525 0 13.855-1.21 22.495-4.402.366-.135 1.614-.598 1.785-.66C33.976 307.348 40.043 306 50.5 306c10.374 0 15.516 1.222 24.875 4.928C84.953 314.722 90.332 316 101 316c8.525 0 13.856-1.21 22.495-4.402.366-.135 1.614-.598 1.785-.66 9.696-3.59 15.763-4.938 26.22-4.938 10.374 0 15.515 1.222 24.875 4.928C185.953 314.722 191.332 316 202 316c8.441 0 13.718-1.21 22.272-4.402.363-.135 1.599-.598 1.768-.66 9.6-3.59 15.607-4.938 25.96-4.938 10.271 0 15.361 1.222 24.629 4.928C286.111 314.722 291.438 316 302 316c8.525 0 13.855-1.21 22.495-4.402l1.784-.66c9.697-3.59 15.764-4.938 26.221-4.938 10.374 0 15.516 1.222 24.875 4.928C386.953 314.722 392.332 316 403 316c8.525 0 13.855-1.21 22.495-4.402.366-.135 1.614-.598 1.785-.66 9.695-3.59 15.763-4.938 26.22-4.938 10.374 0 15.515 1.222 24.875 4.928C487.953 314.722 493.332 316 504 316v-2c-10.374 0-15.515-1.222-24.875-4.928-9.578-3.794-14.957-5.072-25.625-5.072zm25.625 116.072C469.547 416.278 464.168 415 453.5 415c-10.732 0-17.024 1.397-26.927 5.063l-1.784.662c-2.5.924-4.707 1.675-6.791 2.275-4.947 1.497-9.197 2.1-14.998 2.1-6.911 0-11.499-.568-16.561-2.1-2.535-.731-5.189-1.691-8.314-2.928-9.578-3.794-14.957-5.072-25.625-5.072-10.732 0-17.023 1.397-26.927 5.063l-1.784.662c-2.5.924-4.707 1.675-6.791 2.275-4.947 1.497-9.197 2.1-14.998 2.1-6.842 0-11.386-.568-16.396-2.1-2.511-.731-5.139-1.691-8.232-2.928C267.889 416.278 262.563 415 252 415c-10.626 0-16.855 1.397-26.66 5.063l-1.767.662c-2.475.924-4.66 1.675-6.724 2.275-4.898 1.497-9.105 2.1-14.849 2.1-6.911 0-11.499-.568-16.56-2.1-2.536-.731-5.19-1.691-8.315-2.928-9.578-3.794-14.957-5.072-25.625-5.072-10.732 0-17.024 1.397-26.927 5.063l-1.784.662c-2.5.924-4.707 1.675-6.791 2.275-4.947 1.497-9.197 2.1-14.998 2.1-6.911 0-11.5-.568-16.56-2.1-2.536-.731-5.19-1.691-8.315-2.928C66.547 416.278 61.168 415 50.5 415c-10.732 0-17.024 1.397-26.927 5.063l-1.784.662c-2.5.924-4.707 1.675-6.791 2.275-4.947 1.497-9.197 2.1-14.998 2.1v2.101c8.158 0 13.39-1.163 21.396-4.2.361-.13.727-.264 1.099-.402.366-.135 1.614-.598 1.785-.66C33.976 418.348 40.043 417 50.5 417c10.374 0 15.516 1.222 24.875 4.928.965.383 1.888.74 2.778 1.072 7.938 3.115 13.254 4.2 22.847 4.2 8.157 0 13.39-1.163 21.396-4.2.361-.13.727-.264 1.099-.402.366-.135 1.614-.598 1.785-.66 9.696-3.59 15.763-4.938 26.22-4.938 10.374 0 15.515 1.222 24.875 4.928.965.383 1.888.74 2.778 1.072 7.938 3.115 13.254 4.2 22.847 4.2 8.077 0 13.258-1.163 21.184-4.2.357-.13.72-.264 1.088-.402.363-.135 1.599-.598 1.768-.66 9.6-3.59 15.607-4.938 25.96-4.938 10.271 0 15.361 1.222 24.629 4.928.955.383 1.869.74 2.75 1.072 7.86 3.115 13.123 4.2 22.621 4.2 8.157 0 13.391-1.163 21.396-4.2.36-.13.727-.264 1.099-.402l1.784-.66c9.697-3.59 15.764-4.938 26.221-4.938 10.374 0 15.516 1.222 24.875 4.928.965.383 1.889.74 2.777 1.072 7.938 3.115 13.255 4.2 22.848 4.2 8.157 0 13.391-1.163 21.396-4.2.36-.13.727-.264 1.099-.402.366-.135 1.614-.598 1.785-.66 9.695-3.59 15.763-4.938 26.22-4.938 10.374 0 15.515 1.222 24.875 4.928.965.383 1.888.74 2.778 1.072 7.938 3.115 13.254 4.2 22.847 4.2v-2.1c-6.911 0-11.499-.568-16.56-2.1-2.536-.731-5.19-1.691-8.315-2.928z"/><path d="M453.5 405c-10.732 0-17.024 1.397-26.927 5.063l-1.784.662C416.355 413.84 411.245 415 403 415c-10.374 0-15.516-1.222-24.875-4.928-9.578-3.794-14.957-5.072-25.625-5.072-10.732 0-17.023 1.397-26.927 5.063l-1.784.662C315.355 413.84 310.245 415 302 415c-10.271 0-15.361-1.222-24.629-4.928C267.889 406.278 262.563 405 252 405c-10.626 0-16.855 1.397-26.66 5.063l-1.767.662C215.224 413.84 210.164 415 202 415c-10.374 0-15.515-1.222-24.875-4.928-9.578-3.794-14.957-5.072-25.625-5.072-10.732 0-17.024 1.397-26.927 5.063l-1.784.662C114.356 413.84 109.245 415 101 415c-10.374 0-15.516-1.222-24.875-4.928C66.547 406.278 61.168 405 50.5 405c-10.732 0-17.024 1.397-26.927 5.063l-1.784.662C13.356 413.84 8.245 415 0 415v2c8.525 0 13.855-1.21 22.495-4.402.366-.135 1.614-.598 1.785-.66C33.976 408.348 40.043 407 50.5 407c10.374 0 15.516 1.222 24.875 4.928C84.953 415.722 90.332 417 101 417c8.525 0 13.856-1.21 22.495-4.402.366-.135 1.614-.598 1.785-.66 9.696-3.59 15.763-4.938 26.22-4.938 10.374 0 15.515 1.222 24.875 4.928C185.953 415.722 191.332 417 202 417c8.441 0 13.718-1.21 22.272-4.402.363-.135 1.599-.598 1.768-.66 9.6-3.59 15.607-4.938 25.96-4.938 10.271 0 15.361 1.222 24.629 4.928C286.111 415.722 291.438 417 302 417c8.525 0 13.855-1.21 22.495-4.402l1.784-.66c9.697-3.59 15.764-4.938 26.221-4.938 10.374 0 15.516 1.222 24.875 4.928C386.953 415.722 392.332 417 403 417c8.525 0 13.855-1.21 22.495-4.402.366-.135 1.614-.598 1.785-.66 9.695-3.59 15.763-4.938 26.22-4.938 10.374 0 15.515 1.222 24.875 4.928C487.953 415.722 493.332 417 504 417v-2c-10.374 0-15.515-1.222-24.875-4.928-9.578-3.794-14.957-5.072-25.625-5.072zm-101 91c-10.732 0-17.023 1.397-26.927 5.063l-1.784.662c-2.5.924-4.707 1.675-6.791 2.275h6.398c.36-.13.727-.264 1.099-.402l1.784-.66c9.697-3.59 15.764-4.938 26.221-4.938 10.374 0 15.516 1.222 24.875 4.928.965.383 1.889.74 2.777 1.072h6.287c-2.535-.731-5.189-1.691-8.314-2.928-9.578-3.794-14.957-5.072-25.625-5.072zm101-212c-10.732 0-17.024 1.396-26.927 5.063l-1.784.662C416.355 292.84 411.245 294 403 294c-10.374 0-15.516-1.223-24.875-4.928-9.578-3.795-14.957-5.072-25.625-5.072-10.732 0-17.023 1.396-26.927 5.063l-1.784.662C315.355 292.84 310.245 294 302 294c-10.271 0-15.361-1.223-24.629-4.928C267.889 285.277 262.563 284 252 284c-10.626 0-16.855 1.396-26.66 5.063l-1.767.662C215.224 292.84 210.164 294 202 294c-10.374 0-15.515-1.223-24.875-4.928-9.578-3.795-14.957-5.072-25.625-5.072-10.732 0-17.024 1.396-26.927 5.063l-1.784.662C114.356 292.84 109.245 294 101 294c-10.374 0-15.516-1.223-24.875-4.928C66.547 285.277 61.168 284 50.5 284c-10.732 0-17.024 1.396-26.927 5.063l-1.784.662C13.356 292.84 8.245 294 0 294v2c8.525 0 13.855-1.21 22.495-4.402.366-.135 1.614-.598 1.785-.66C33.976 287.348 40.043 286 50.5 286c10.374 0 15.516 1.223 24.875 4.928C84.953 294.723 90.332 296 101 296c8.525 0 13.856-1.21 22.495-4.402.366-.135 1.614-.598 1.785-.66 9.696-3.59 15.763-4.938 26.22-4.938 10.374 0 15.515 1.223 24.875 4.928C185.953 294.723 191.332 296 202 296c8.441 0 13.718-1.21 22.272-4.402.363-.135 1.599-.598 1.768-.66 9.6-3.59 15.607-4.938 25.96-4.938 10.271 0 15.361 1.223 24.629 4.928C286.111 294.723 291.438 296 302 296c8.525 0 13.855-1.21 22.495-4.402l1.784-.66c9.697-3.59 15.764-4.938 26.221-4.938 10.374 0 15.516 1.223 24.875 4.928C386.953 294.723 392.332 296 403 296c8.525 0 13.855-1.21 22.495-4.402.366-.135 1.614-.598 1.785-.66 9.695-3.59 15.763-4.938 26.22-4.938 10.374 0 15.515 1.223 24.875 4.928C487.953 294.723 493.332 296 504 296v-2c-10.374 0-15.515-1.223-24.875-4.928-9.578-3.795-14.957-5.072-25.625-5.072z"/><path d="M479.125 299.072C469.547 295.277 464.168 294 453.5 294c-10.732 0-17.024 1.396-26.927 5.063l-1.784.662c-2.5.924-4.707 1.675-6.791 2.275-4.947 1.426-9.197 2-14.998 2-6.911 0-11.499-.542-16.561-2-2.535-.731-5.189-1.691-8.314-2.928-9.578-3.795-14.957-5.072-25.625-5.072-10.732 0-17.023 1.396-26.927 5.063l-1.784.662c-2.5.924-4.707 1.675-6.791 2.275-4.947 1.426-9.197 2-14.998 2-6.842 0-11.386-.542-16.396-2-2.511-.731-5.139-1.691-8.232-2.928C267.889 295.277 262.563 294 252 294c-10.626 0-16.855 1.396-26.66 5.063l-1.767.662c-2.475.924-4.66 1.675-6.724 2.275-4.898 1.426-9.105 2-14.849 2-6.911 0-11.499-.542-16.56-2-2.536-.731-5.19-1.691-8.315-2.928-9.578-3.795-14.957-5.072-25.625-5.072-10.732 0-17.024 1.396-26.927 5.063l-1.784.662c-2.5.924-4.707 1.675-6.791 2.275-4.947 1.426-9.197 2-14.998 2-6.911 0-11.5-.542-16.56-2-2.536-.731-5.19-1.691-8.315-2.928C66.547 295.277 61.168 294 50.5 294c-10.732 0-17.024 1.396-26.927 5.063l-1.784.662c-2.5.924-4.707 1.675-6.791 2.275-4.947 1.426-9.197 2-14.998 2v2c8.158 0 13.39-1.108 21.396-4 .361-.13.727-.264 1.099-.402.366-.135 1.614-.598 1.785-.66C33.976 297.348 40.043 296 50.5 296c10.374 0 15.516 1.223 24.875 4.928.965.383 1.888.74 2.778 1.072 7.938 2.966 13.254 4 22.847 4 8.157 0 13.39-1.108 21.396-4 .361-.13.727-.264 1.099-.402.366-.135 1.614-.598 1.785-.66 9.696-3.59 15.763-4.938 26.22-4.938 10.374 0 15.515 1.223 24.875 4.928.965.383 1.888.74 2.778 1.072 7.938 2.966 13.254 4 22.847 4 8.077 0 13.258-1.108 21.184-4 .357-.13.72-.264 1.088-.402.363-.135 1.599-.598 1.768-.66 9.6-3.59 15.607-4.938 25.96-4.938 10.271 0 15.361 1.223 24.629 4.928.955.383 1.869.74 2.75 1.072 7.86 2.966 13.123 4 22.621 4 8.157 0 13.391-1.108 21.396-4 .36-.13.727-.264 1.099-.402l1.784-.66c9.697-3.59 15.764-4.938 26.221-4.938 10.374 0 15.516 1.223 24.875 4.928.965.383 1.889.74 2.777 1.072 7.938 2.966 13.255 4 22.848 4 8.157 0 13.391-1.108 21.396-4 .36-.13.727-.264 1.099-.402.366-.135 1.614-.598 1.785-.66 9.695-3.59 15.763-4.938 26.22-4.938 10.374 0 15.515 1.223 24.875 4.928.965.383 1.888.74 2.778 1.072 7.938 2.966 13.254 4 22.847 4v-2c-6.911 0-11.499-.542-16.56-2-2.536-.731-5.19-1.691-8.315-2.928zm0 101C469.547 396.278 464.168 395 453.5 395c-10.732 0-17.024 1.397-26.927 5.063l-1.784.662c-2.5.924-4.707 1.675-6.791 2.275-4.947 1.426-9.197 2-14.998 2-6.911 0-11.499-.542-16.561-2-2.535-.731-5.189-1.691-8.314-2.928-9.578-3.794-14.957-5.072-25.625-5.072-10.732 0-17.023 1.397-26.927 5.063l-1.784.662c-2.5.924-4.707 1.675-6.791 2.275-4.947 1.426-9.197 2-14.998 2-6.842 0-11.386-.542-16.396-2-2.511-.731-5.139-1.691-8.232-2.928C267.889 396.278 262.563 395 252 395c-10.626 0-16.855 1.397-26.66 5.063l-1.767.662c-2.475.924-4.66 1.675-6.724 2.275-4.898 1.426-9.105 2-14.849 2-6.911 0-11.499-.542-16.56-2-2.536-.731-5.19-1.691-8.315-2.928-9.578-3.794-14.957-5.072-25.625-5.072-10.732 0-17.024 1.397-26.927 5.063l-1.784.662c-2.5.924-4.707 1.675-6.791 2.275-4.947 1.426-9.197 2-14.998 2-6.911 0-11.5-.542-16.56-2-2.536-.731-5.19-1.691-8.315-2.928C66.547 396.278 61.168 395 50.5 395c-10.732 0-17.024 1.397-26.927 5.063l-1.784.662c-2.5.924-4.707 1.675-6.791 2.275-4.947 1.426-9.197 2-14.998 2v2c8.158 0 13.39-1.108 21.396-4 .361-.13.727-.264 1.099-.402.366-.135 1.614-.598 1.785-.66C33.976 398.348 40.043 397 50.5 397c10.374 0 15.516 1.222 24.875 4.928.965.383 1.888.74 2.778 1.072 7.938 2.966 13.254 4 22.847 4 8.157 0 13.39-1.108 21.396-4 .361-.13.727-.264 1.099-.402.366-.135 1.614-.598 1.785-.66 9.696-3.59 15.763-4.938 26.22-4.938 10.374 0 15.515 1.222 24.875 4.928.965.383 1.888.74 2.778 1.072 7.938 2.966 13.254 4 22.847 4 8.077 0 13.258-1.108 21.184-4 .357-.13.72-.264 1.088-.402.363-.135 1.599-.598 1.768-.66 9.6-3.59 15.607-4.938 25.96-4.938 10.271 0 15.361 1.222 24.629 4.928.955.383 1.869.74 2.75 1.072 7.86 2.966 13.123 4 22.621 4 8.157 0 13.391-1.108 21.396-4 .36-.13.727-.264 1.099-.402l1.784-.66c9.697-3.59 15.764-4.938 26.221-4.938 10.374 0 15.516 1.222 24.875 4.928.965.383 1.889.74 2.777 1.072 7.938 2.966 13.255 4 22.848 4 8.157 0 13.391-1.108 21.396-4 .36-.13.727-.264 1.099-.402.366-.135 1.614-.598 1.785-.66 9.695-3.59 15.763-4.938 26.22-4.938 10.374 0 15.515 1.222 24.875 4.928.965.383 1.888.74 2.778 1.072 7.938 2.966 13.254 4 22.847 4v-2c-6.911 0-11.499-.542-16.56-2-2.536-.731-5.19-1.691-8.315-2.928z"/><path d="M453.5 385c-10.732 0-17.024 1.397-26.927 5.063l-1.784.662C416.355 393.84 411.245 395 403 395c-10.374 0-15.516-1.222-24.875-4.928-9.578-3.794-14.957-5.072-25.625-5.072-10.732 0-17.023 1.397-26.927 5.063l-1.784.662C315.355 393.84 310.245 395 302 395c-10.271 0-15.361-1.222-24.629-4.928C267.889 386.278 262.563 385 252 385c-10.626 0-16.855 1.397-26.66 5.063l-1.767.662C215.224 393.84 210.164 395 202 395c-10.374 0-15.515-1.222-24.875-4.928-9.578-3.794-14.957-5.072-25.625-5.072-10.732 0-17.024 1.397-26.927 5.063l-1.784.662C114.356 393.84 109.245 395 101 395c-10.374 0-15.516-1.222-24.875-4.928C66.547 386.278 61.168 385 50.5 385c-10.732 0-17.024 1.397-26.927 5.063l-1.784.662C13.356 393.84 8.245 395 0 395v2c8.525 0 13.855-1.21 22.495-4.402.366-.135 1.614-.598 1.785-.66C33.976 388.348 40.043 387 50.5 387c10.374 0 15.516 1.222 24.875 4.928C84.953 395.722 90.332 397 101 397c8.525 0 13.856-1.21 22.495-4.402.366-.135 1.614-.598 1.785-.66 9.696-3.59 15.763-4.938 26.22-4.938 10.374 0 15.515 1.222 24.875 4.928C185.953 395.722 191.332 397 202 397c8.441 0 13.718-1.21 22.272-4.402.363-.135 1.599-.598 1.768-.66 9.6-3.59 15.607-4.938 25.96-4.938 10.271 0 15.361 1.222 24.629 4.928C286.111 395.722 291.438 397 302 397c8.525 0 13.855-1.21 22.495-4.402l1.784-.66c9.697-3.59 15.764-4.938 26.221-4.938 10.374 0 15.516 1.222 24.875 4.928C386.953 395.722 392.332 397 403 397c8.525 0 13.855-1.21 22.495-4.402.366-.135 1.614-.598 1.785-.66 9.695-3.59 15.763-4.938 26.22-4.938 10.374 0 15.515 1.222 24.875 4.928C487.953 395.722 493.332 397 504 397v-2c-10.374 0-15.515-1.222-24.875-4.928-9.578-3.794-14.957-5.072-25.625-5.072zm0 101c-10.732 0-17.024 1.397-26.927 5.063l-1.784.662C416.355 494.84 411.245 496 403 496c-10.374 0-15.516-1.222-24.875-4.928-9.578-3.794-14.957-5.072-25.625-5.072-10.732 0-17.023 1.397-26.927 5.063l-1.784.662C315.355 494.84 310.245 496 302 496c-10.271 0-15.361-1.222-24.629-4.928C267.889 487.278 262.563 486 252 486c-10.626 0-16.855 1.397-26.66 5.063l-1.767.662C215.224 494.84 210.164 496 202 496c-10.374 0-15.515-1.222-24.875-4.928-9.578-3.794-14.957-5.072-25.625-5.072-10.732 0-17.024 1.397-26.927 5.063l-1.784.662C114.356 494.84 109.245 496 101 496c-10.374 0-15.516-1.222-24.875-4.928C66.547 487.278 61.168 486 50.5 486c-10.732 0-17.024 1.397-26.927 5.063l-1.784.662C13.356 494.84 8.245 496 0 496v2c8.525 0 13.855-1.21 22.495-4.402.366-.135 1.614-.598 1.785-.66C33.976 489.348 40.043 488 50.5 488c10.374 0 15.516 1.222 24.875 4.928C84.953 496.722 90.332 498 101 498c8.525 0 13.856-1.21 22.495-4.402.366-.135 1.614-.598 1.785-.66 9.696-3.59 15.763-4.938 26.22-4.938 10.374 0 15.515 1.222 24.875 4.928C185.953 496.722 191.332 498 202 498c8.441 0 13.718-1.21 22.272-4.402.363-.135 1.599-.598 1.768-.66 9.6-3.59 15.607-4.938 25.96-4.938 10.271 0 15.361 1.222 24.629 4.928C286.111 496.722 291.438 498 302 498c8.525 0 13.855-1.21 22.495-4.402l1.784-.66c9.697-3.59 15.764-4.938 26.221-4.938 10.374 0 15.516 1.222 24.875 4.928C386.953 496.722 392.332 498 403 498c8.525 0 13.855-1.21 22.495-4.402.366-.135 1.614-.598 1.785-.66 9.695-3.59 15.763-4.938 26.22-4.938 10.374 0 15.515 1.222 24.875 4.928C487.953 496.722 493.332 498 504 498v-2c-10.374 0-15.515-1.222-24.875-4.928-9.578-3.794-14.957-5.072-25.625-5.072z"/><path d="M453.5 496c-10.732 0-17.024 1.397-26.927 5.063l-1.784.662c-2.5.924-4.707 1.675-6.791 2.275h6.398c.36-.13.727-.264 1.099-.402.366-.135 1.614-.598 1.785-.66 9.695-3.59 15.763-4.938 26.22-4.938 10.374 0 15.515 1.222 24.875 4.928.965.383 1.888.74 2.778 1.072h6.287c-2.536-.731-5.19-1.691-8.315-2.928-9.578-3.794-14.957-5.072-25.625-5.072zm0-232c-10.732 0-17.024 1.396-26.927 5.063l-1.784.662C416.355 272.84 411.245 274 403 274c-10.374 0-15.516-1.223-24.875-4.928-9.578-3.795-14.957-5.072-25.625-5.072-10.732 0-17.023 1.396-26.927 5.063l-1.784.662C315.355 272.84 310.245 274 302 274c-10.271 0-15.361-1.223-24.629-4.928C267.889 265.277 262.563 264 252 264c-10.626 0-16.855 1.396-26.66 5.063l-1.767.662C215.224 272.84 210.164 274 202 274c-10.374 0-15.515-1.223-24.875-4.928-9.578-3.795-14.957-5.072-25.625-5.072-10.732 0-17.024 1.396-26.927 5.063l-1.784.662C114.356 272.84 109.245 274 101 274c-10.374 0-15.516-1.223-24.875-4.928C66.547 265.277 61.168 264 50.5 264c-10.732 0-17.024 1.396-26.927 5.063l-1.784.662C13.356 272.84 8.245 274 0 274v2c8.525 0 13.855-1.21 22.495-4.402.366-.135 1.614-.598 1.785-.66C33.976 267.348 40.043 266 50.5 266c10.374 0 15.516 1.223 24.875 4.928C84.953 274.723 90.332 276 101 276c8.525 0 13.856-1.21 22.495-4.402.366-.135 1.614-.598 1.785-.66 9.696-3.59 15.763-4.938 26.22-4.938 10.374 0 15.515 1.223 24.875 4.928C185.953 274.723 191.332 276 202 276c8.441 0 13.718-1.21 22.272-4.402.363-.135 1.599-.598 1.768-.66 9.6-3.59 15.607-4.938 25.96-4.938 10.271 0 15.361 1.223 24.629 4.928C286.111 274.723 291.438 276 302 276c8.525 0 13.855-1.21 22.495-4.402l1.784-.66c9.697-3.59 15.764-4.938 26.221-4.938 10.374 0 15.516 1.223 24.875 4.928C386.953 274.723 392.332 276 403 276c8.525 0 13.855-1.21 22.495-4.402.366-.135 1.614-.598 1.785-.66 9.695-3.59 15.763-4.938 26.22-4.938 10.374 0 15.515 1.223 24.875 4.928C487.953 274.723 493.332 276 504 276v-2c-10.374 0-15.515-1.223-24.875-4.928-9.578-3.795-14.957-5.072-25.625-5.072z"/><path d="M479.125 279.072C469.547 275.277 464.168 274 453.5 274c-10.732 0-17.024 1.396-26.927 5.063l-1.784.662c-2.5.924-4.707 1.674-6.791 2.275-4.947 1.426-9.197 2-14.998 2-6.911 0-11.499-.542-16.561-2-2.535-.73-5.189-1.691-8.314-2.928-9.578-3.795-14.957-5.072-25.625-5.072-10.732 0-17.023 1.396-26.927 5.063l-1.784.662c-2.5.924-4.707 1.674-6.791 2.275-4.947 1.426-9.197 2-14.998 2-6.842 0-11.386-.542-16.396-2-2.511-.73-5.139-1.691-8.232-2.928C267.889 275.277 262.563 274 252 274c-10.626 0-16.855 1.396-26.66 5.063l-1.767.662c-2.475.924-4.66 1.674-6.724 2.275-4.898 1.426-9.105 2-14.849 2-6.911 0-11.499-.542-16.56-2-2.536-.73-5.19-1.691-8.315-2.928-9.578-3.795-14.957-5.072-25.625-5.072-10.732 0-17.024 1.396-26.927 5.063l-1.784.662c-2.5.924-4.707 1.674-6.791 2.275-4.947 1.426-9.197 2-14.998 2-6.911 0-11.5-.542-16.56-2-2.536-.73-5.19-1.691-8.315-2.928C66.547 275.277 61.168 274 50.5 274c-10.732 0-17.024 1.396-26.927 5.063l-1.784.662c-2.5.924-4.707 1.674-6.791 2.275-4.947 1.426-9.197 2-14.998 2v2c8.158 0 13.39-1.107 21.396-4 .361-.13.727-.264 1.099-.402.366-.135 1.614-.598 1.785-.66C33.976 277.348 40.043 276 50.5 276c10.374 0 15.516 1.223 24.875 4.928.965.383 1.888.74 2.778 1.072 7.938 2.966 13.254 4 22.847 4 8.157 0 13.39-1.107 21.396-4 .361-.13.727-.264 1.099-.402.366-.135 1.614-.598 1.785-.66 9.696-3.59 15.763-4.938 26.22-4.938 10.374 0 15.515 1.223 24.875 4.928.965.383 1.888.74 2.778 1.072 7.938 2.966 13.254 4 22.847 4 8.077 0 13.258-1.107 21.184-4 .357-.13.72-.264 1.088-.402.363-.135 1.599-.598 1.768-.66 9.6-3.59 15.607-4.938 25.96-4.938 10.271 0 15.361 1.223 24.629 4.928.955.383 1.869.74 2.75 1.072 7.86 2.966 13.123 4 22.621 4 8.157 0 13.391-1.107 21.396-4 .36-.13.727-.264 1.099-.402l1.784-.66c9.697-3.59 15.764-4.938 26.221-4.938 10.374 0 15.516 1.223 24.875 4.928.965.383 1.889.74 2.777 1.072 7.938 2.966 13.255 4 22.848 4 8.157 0 13.391-1.107 21.396-4 .36-.13.727-.264 1.099-.402.366-.135 1.614-.598 1.785-.66 9.695-3.59 15.763-4.938 26.22-4.938 10.374 0 15.515 1.223 24.875 4.928.965.383 1.888.74 2.778 1.072 7.938 2.966 13.254 4 22.847 4v-2c-6.911 0-11.499-.542-16.56-2-2.536-.73-5.19-1.691-8.315-2.928zm0 101C469.547 376.278 464.168 375 453.5 375c-10.732 0-17.024 1.397-26.927 5.063l-1.784.662c-2.5.924-4.707 1.675-6.791 2.275-4.947 1.426-9.197 2-14.998 2-6.911 0-11.499-.542-16.561-2-2.535-.731-5.189-1.691-8.314-2.928-9.578-3.794-14.957-5.072-25.625-5.072-10.732 0-17.023 1.397-26.927 5.063l-1.784.662c-2.5.924-4.707 1.675-6.791 2.275-4.947 1.426-9.197 2-14.998 2-6.842 0-11.386-.542-16.396-2-2.511-.731-5.139-1.691-8.232-2.928C267.889 376.278 262.563 375 252 375c-10.626 0-16.855 1.397-26.66 5.063l-1.767.662c-2.475.924-4.66 1.675-6.724 2.275-4.898 1.426-9.105 2-14.849 2-6.911 0-11.499-.542-16.56-2-2.536-.731-5.19-1.691-8.315-2.928-9.578-3.794-14.957-5.072-25.625-5.072-10.732 0-17.024 1.397-26.927 5.063l-1.784.662c-2.5.924-4.707 1.675-6.791 2.275-4.947 1.426-9.197 2-14.998 2-6.911 0-11.5-.542-16.56-2-2.536-.731-5.19-1.691-8.315-2.928C66.547 376.278 61.168 375 50.5 375c-10.732 0-17.024 1.397-26.927 5.063l-1.784.662c-2.5.924-4.707 1.675-6.791 2.275-4.947 1.426-9.197 2-14.998 2v2c8.158 0 13.39-1.108 21.396-4 .361-.13.727-.264 1.099-.402.366-.135 1.614-.598 1.785-.66C33.976 378.348 40.043 377 50.5 377c10.374 0 15.516 1.222 24.875 4.928.965.383 1.888.74 2.778 1.072 7.938 2.966 13.254 4 22.847 4 8.157 0 13.39-1.108 21.396-4 .361-.13.727-.264 1.099-.402.366-.135 1.614-.598 1.785-.66 9.696-3.59 15.763-4.938 26.22-4.938 10.374 0 15.515 1.222 24.875 4.928.965.383 1.888.74 2.778 1.072 7.938 2.966 13.254 4 22.847 4 8.077 0 13.258-1.108 21.184-4 .357-.13.72-.264 1.088-.402.363-.135 1.599-.598 1.768-.66 9.6-3.59 15.607-4.938 25.96-4.938 10.271 0 15.361 1.222 24.629 4.928.955.383 1.869.74 2.75 1.072 7.86 2.966 13.123 4 22.621 4 8.157 0 13.391-1.108 21.396-4 .36-.13.727-.264 1.099-.402l1.784-.66c9.697-3.59 15.764-4.938 26.221-4.938 10.374 0 15.516 1.222 24.875 4.928.965.383 1.889.74 2.777 1.072 7.938 2.966 13.255 4 22.848 4 8.157 0 13.391-1.108 21.396-4 .36-.13.727-.264 1.099-.402.366-.135 1.614-.598 1.785-.66 9.695-3.59 15.763-4.938 26.22-4.938 10.374 0 15.515 1.222 24.875 4.928.965.383 1.888.74 2.778 1.072 7.938 2.966 13.254 4 22.847 4v-2c-6.911 0-11.499-.542-16.56-2-2.536-.731-5.19-1.691-8.315-2.928z"/><path d="M453.5 365c-10.732 0-17.024 1.397-26.927 5.063l-1.784.662C416.355 373.84 411.245 375 403 375c-10.374 0-15.516-1.222-24.875-4.928-9.578-3.794-14.957-5.072-25.625-5.072-10.732 0-17.023 1.397-26.927 5.063l-1.784.662C315.355 373.84 310.245 375 302 375c-10.271 0-15.361-1.222-24.629-4.928C267.889 366.278 262.563 365 252 365c-10.626 0-16.855 1.397-26.66 5.063l-1.767.662C215.224 373.84 210.164 375 202 375c-10.374 0-15.515-1.222-24.875-4.928-9.578-3.794-14.957-5.072-25.625-5.072-10.732 0-17.024 1.397-26.927 5.063l-1.784.662C114.356 373.84 109.245 375 101 375c-10.374 0-15.516-1.222-24.875-4.928C66.547 366.278 61.168 365 50.5 365c-10.732 0-17.024 1.397-26.927 5.063l-1.784.662C13.356 373.84 8.245 375 0 375v2c8.525 0 13.855-1.21 22.495-4.402.366-.135 1.614-.598 1.785-.66C33.976 368.348 40.043 367 50.5 367c10.374 0 15.516 1.222 24.875 4.928C84.953 375.722 90.332 377 101 377c8.525 0 13.856-1.21 22.495-4.402.366-.135 1.614-.598 1.785-.66 9.696-3.59 15.763-4.938 26.22-4.938 10.374 0 15.515 1.222 24.875 4.928C185.953 375.722 191.332 377 202 377c8.441 0 13.718-1.21 22.272-4.402.363-.135 1.599-.598 1.768-.66 9.6-3.59 15.607-4.938 25.96-4.938 10.271 0 15.361 1.222 24.629 4.928C286.111 375.722 291.438 377 302 377c8.525 0 13.855-1.21 22.495-4.402l1.784-.66c9.697-3.59 15.764-4.938 26.221-4.938 10.374 0 15.516 1.222 24.875 4.928C386.953 375.722 392.332 377 403 377c8.525 0 13.855-1.21 22.495-4.402.366-.135 1.614-.598 1.785-.66 9.695-3.59 15.763-4.938 26.22-4.938 10.374 0 15.515 1.222 24.875 4.928C487.953 375.722 493.332 377 504 377v-2c-10.374 0-15.515-1.222-24.875-4.928-9.578-3.794-14.957-5.072-25.625-5.072zm0 101c-10.732 0-17.024 1.397-26.927 5.063l-1.784.662C416.355 474.84 411.245 476 403 476c-10.374 0-15.516-1.222-24.875-4.928-9.578-3.794-14.957-5.072-25.625-5.072-10.732 0-17.023 1.397-26.927 5.063l-1.784.662C315.355 474.84 310.245 476 302 476c-10.271 0-15.361-1.222-24.629-4.928C267.889 467.278 262.563 466 252 466c-10.626 0-16.855 1.397-26.66 5.063l-1.767.662C215.224 474.84 210.164 476 202 476c-10.374 0-15.515-1.222-24.875-4.928-9.578-3.794-14.957-5.072-25.625-5.072-10.732 0-17.024 1.397-26.927 5.063l-1.784.662C114.356 474.84 109.245 476 101 476c-10.374 0-15.516-1.222-24.875-4.928C66.547 467.278 61.168 466 50.5 466c-10.732 0-17.024 1.397-26.927 5.063l-1.784.662C13.356 474.84 8.245 476 0 476v2c8.525 0 13.855-1.21 22.495-4.402.366-.135 1.614-.598 1.785-.66C33.976 469.348 40.043 468 50.5 468c10.374 0 15.516 1.222 24.875 4.928C84.953 476.722 90.332 478 101 478c8.525 0 13.856-1.21 22.495-4.402.366-.135 1.614-.598 1.785-.66 9.696-3.59 15.763-4.938 26.22-4.938 10.374 0 15.515 1.222 24.875 4.928C185.953 476.722 191.332 478 202 478c8.441 0 13.718-1.21 22.272-4.402.363-.135 1.599-.598 1.768-.66 9.6-3.59 15.607-4.938 25.96-4.938 10.271 0 15.361 1.222 24.629 4.928C286.111 476.722 291.438 478 302 478c8.525 0 13.855-1.21 22.495-4.402l1.784-.66c9.697-3.59 15.764-4.938 26.221-4.938 10.374 0 15.516 1.222 24.875 4.928C386.953 476.722 392.332 478 403 478c8.525 0 13.855-1.21 22.495-4.402.366-.135 1.614-.598 1.785-.66 9.695-3.59 15.763-4.938 26.22-4.938 10.374 0 15.515 1.222 24.875 4.928C487.953 476.722 493.332 478 504 478v-2c-10.374 0-15.515-1.222-24.875-4.928-9.578-3.794-14.957-5.072-25.625-5.072z"/><path d="M479.125 481.072C469.547 477.278 464.168 476 453.5 476c-10.732 0-17.024 1.397-26.927 5.063l-1.784.662c-2.5.924-4.707 1.675-6.791 2.275-4.947 1.426-9.197 2-14.998 2-6.911 0-11.499-.542-16.561-2-2.535-.731-5.189-1.691-8.314-2.928-9.578-3.794-14.957-5.072-25.625-5.072-10.732 0-17.023 1.397-26.927 5.063l-1.784.662c-2.5.924-4.707 1.675-6.791 2.275-4.947 1.426-9.197 2-14.998 2-6.842 0-11.386-.542-16.396-2-2.511-.731-5.139-1.691-8.232-2.928C267.889 477.278 262.563 476 252 476c-10.626 0-16.855 1.397-26.66 5.063l-1.767.662c-2.475.924-4.66 1.675-6.724 2.275-4.898 1.426-9.105 2-14.849 2-6.911 0-11.499-.542-16.56-2-2.536-.731-5.19-1.691-8.315-2.928-9.578-3.794-14.957-5.072-25.625-5.072-10.732 0-17.024 1.397-26.927 5.063l-1.784.662c-2.5.924-4.707 1.675-6.791 2.275-4.947 1.426-9.197 2-14.998 2-6.911 0-11.5-.542-16.56-2-2.536-.731-5.19-1.691-8.315-2.928C66.547 477.278 61.168 476 50.5 476c-10.732 0-17.024 1.397-26.927 5.063l-1.784.662c-2.5.924-4.707 1.675-6.791 2.275-4.947 1.426-9.197 2-14.998 2v2c8.158 0 13.39-1.108 21.396-4 .361-.13.727-.264 1.099-.402.366-.135 1.614-.598 1.785-.66C33.976 479.348 40.043 478 50.5 478c10.374 0 15.516 1.222 24.875 4.928.965.383 1.888.74 2.778 1.072 7.938 2.966 13.254 4 22.847 4 8.157 0 13.39-1.108 21.396-4 .361-.13.727-.264 1.099-.402.366-.135 1.614-.598 1.785-.66 9.696-3.59 15.763-4.938 26.22-4.938 10.374 0 15.515 1.222 24.875 4.928.965.383 1.888.74 2.778 1.072 7.938 2.966 13.254 4 22.847 4 8.077 0 13.258-1.108 21.184-4 .357-.13.72-.264 1.088-.402.363-.135 1.599-.598 1.768-.66 9.6-3.59 15.607-4.938 25.96-4.938 10.271 0 15.361 1.222 24.629 4.928.955.383 1.869.74 2.75 1.072 7.86 2.966 13.123 4 22.621 4 8.157 0 13.391-1.108 21.396-4 .36-.13.727-.264 1.099-.402l1.784-.66c9.697-3.59 15.764-4.938 26.221-4.938 10.374 0 15.516 1.222 24.875 4.928.965.383 1.889.74 2.777 1.072 7.938 2.966 13.255 4 22.848 4 8.157 0 13.391-1.108 21.396-4 .36-.13.727-.264 1.099-.402.366-.135 1.614-.598 1.785-.66 9.695-3.59 15.763-4.938 26.22-4.938 10.374 0 15.515 1.222 24.875 4.928.965.383 1.888.74 2.778 1.072 7.938 2.966 13.254 4 22.847 4v-2c-6.911 0-11.499-.542-16.56-2-2.536-.731-5.19-1.691-8.315-2.928zM453.5 244c-10.732 0-17.024 1.397-26.927 5.063l-1.784.662C416.355 252.84 411.245 254 403 254c-10.374 0-15.516-1.223-24.875-4.928-9.578-3.794-14.957-5.072-25.625-5.072-10.732 0-17.023 1.397-26.927 5.063l-1.784.662C315.355 252.84 310.245 254 302 254c-10.271 0-15.361-1.223-24.629-4.928C267.889 245.278 262.563 244 252 244c-10.626 0-16.855 1.397-26.66 5.063l-1.767.662C215.224 252.84 210.164 254 202 254c-10.374 0-15.515-1.223-24.875-4.928-9.578-3.794-14.957-5.072-25.625-5.072-10.732 0-17.024 1.397-26.927 5.063l-1.784.662C114.356 252.84 109.245 254 101 254c-10.374 0-15.516-1.223-24.875-4.928C66.547 245.278 61.168 244 50.5 244c-10.732 0-17.024 1.397-26.927 5.063l-1.784.662C13.356 252.84 8.245 254 0 254v2c8.525 0 13.855-1.21 22.495-4.402l1.785-.661C33.976 247.348 40.043 246 50.5 246c10.374 0 15.516 1.222 24.875 4.928C84.953 254.723 90.332 256 101 256c8.525 0 13.856-1.21 22.495-4.402l1.785-.661c9.696-3.589 15.763-4.937 26.22-4.937 10.374 0 15.515 1.222 24.875 4.928C185.953 254.723 191.332 256 202 256c8.441 0 13.718-1.21 22.272-4.402l1.768-.661c9.6-3.589 15.607-4.937 25.96-4.937 10.271 0 15.361 1.222 24.629 4.928C286.111 254.723 291.438 256 302 256c8.525 0 13.855-1.21 22.495-4.402l1.784-.661c9.697-3.589 15.764-4.937 26.221-4.937 10.374 0 15.516 1.222 24.875 4.928C386.953 254.723 392.332 256 403 256c8.525 0 13.855-1.21 22.495-4.402l1.785-.661c9.695-3.589 15.763-4.937 26.22-4.937 10.374 0 15.515 1.222 24.875 4.928C487.953 254.723 493.332 256 504 256v-2c-10.374 0-15.515-1.223-24.875-4.928-9.578-3.794-14.957-5.072-25.625-5.072z"/><path d="M479.125 259.072C469.547 255.277 464.168 254 453.5 254c-10.732 0-17.024 1.396-26.927 5.063l-1.784.662c-2.5.924-4.707 1.674-6.791 2.275-4.947 1.426-9.197 2-14.998 2-6.911 0-11.499-.542-16.561-2-2.535-.73-5.189-1.691-8.314-2.928-9.578-3.795-14.957-5.072-25.625-5.072-10.732 0-17.023 1.396-26.927 5.063l-1.784.662c-2.5.924-4.707 1.674-6.791 2.275-4.947 1.426-9.197 2-14.998 2-6.842 0-11.386-.542-16.396-2-2.511-.73-5.139-1.691-8.232-2.928C267.889 255.277 262.563 254 252 254c-10.626 0-16.855 1.396-26.66 5.063l-1.767.662c-2.475.924-4.66 1.674-6.724 2.275-4.898 1.426-9.105 2-14.849 2-6.911 0-11.499-.542-16.56-2-2.536-.73-5.19-1.691-8.315-2.928-9.578-3.795-14.957-5.072-25.625-5.072-10.732 0-17.024 1.396-26.927 5.063l-1.784.662c-2.5.924-4.707 1.674-6.791 2.275-4.947 1.426-9.197 2-14.998 2-6.911 0-11.5-.542-16.56-2-2.536-.73-5.19-1.691-8.315-2.928C66.547 255.277 61.168 254 50.5 254c-10.732 0-17.024 1.396-26.927 5.063l-1.784.662c-2.5.924-4.707 1.674-6.791 2.275-4.947 1.426-9.197 2-14.998 2v2c8.158 0 13.39-1.107 21.396-4 .361-.13.727-.264 1.099-.402.366-.135 1.614-.598 1.785-.66C33.976 257.348 40.043 256 50.5 256c10.374 0 15.516 1.223 24.875 4.928.965.383 1.888.74 2.778 1.072 7.938 2.966 13.254 4 22.847 4 8.157 0 13.39-1.107 21.396-4 .361-.13.727-.264 1.099-.402.366-.135 1.614-.598 1.785-.66 9.696-3.59 15.763-4.938 26.22-4.938 10.374 0 15.515 1.223 24.875 4.928.965.383 1.888.74 2.778 1.072 7.938 2.966 13.254 4 22.847 4 8.077 0 13.258-1.107 21.184-4 .357-.13.72-.264 1.088-.402.363-.135 1.599-.598 1.768-.66 9.6-3.59 15.607-4.938 25.96-4.938 10.271 0 15.361 1.223 24.629 4.928.955.383 1.869.74 2.75 1.072 7.86 2.966 13.123 4 22.621 4 8.157 0 13.391-1.107 21.396-4 .36-.13.727-.264 1.099-.402l1.784-.66c9.697-3.59 15.764-4.938 26.221-4.938 10.374 0 15.516 1.223 24.875 4.928.965.383 1.889.74 2.777 1.072 7.938 2.966 13.255 4 22.848 4 8.157 0 13.391-1.107 21.396-4 .36-.13.727-.264 1.099-.402.366-.135 1.614-.598 1.785-.66 9.695-3.59 15.763-4.938 26.22-4.938 10.374 0 15.515 1.223 24.875 4.928.965.383 1.888.74 2.778 1.072 7.938 2.966 13.254 4 22.847 4v-2c-6.911 0-11.499-.542-16.56-2-2.536-.73-5.19-1.691-8.315-2.928zM453.5 345c-10.732 0-17.024 1.397-26.927 5.063l-1.784.662C416.355 353.84 411.245 355 403 355c-10.374 0-15.516-1.222-24.875-4.928-9.578-3.794-14.957-5.072-25.625-5.072-10.732 0-17.023 1.397-26.927 5.063l-1.784.662C315.355 353.84 310.245 355 302 355c-10.271 0-15.361-1.222-24.629-4.928C267.889 346.278 262.563 345 252 345c-10.626 0-16.855 1.397-26.66 5.063l-1.767.662C215.224 353.84 210.164 355 202 355c-10.374 0-15.515-1.222-24.875-4.928-9.578-3.794-14.957-5.072-25.625-5.072-10.732 0-17.024 1.397-26.927 5.063l-1.784.662C114.356 353.84 109.245 355 101 355c-10.374 0-15.516-1.222-24.875-4.928C66.547 346.278 61.168 345 50.5 345c-10.732 0-17.024 1.397-26.927 5.063l-1.784.662C13.356 353.84 8.245 355 0 355v2c8.525 0 13.855-1.21 22.495-4.402.366-.135 1.614-.598 1.785-.66C33.976 348.348 40.043 347 50.5 347c10.374 0 15.516 1.222 24.875 4.928C84.953 355.722 90.332 357 101 357c8.525 0 13.856-1.21 22.495-4.402.366-.135 1.614-.598 1.785-.66 9.696-3.59 15.763-4.938 26.22-4.938 10.374 0 15.515 1.222 24.875 4.928C185.953 355.722 191.332 357 202 357c8.441 0 13.718-1.21 22.272-4.402.363-.135 1.599-.598 1.768-.66 9.6-3.59 15.607-4.938 25.96-4.938 10.271 0 15.361 1.222 24.629 4.928C286.111 355.722 291.438 357 302 357c8.525 0 13.855-1.21 22.495-4.402l1.784-.66c9.697-3.59 15.764-4.938 26.221-4.938 10.374 0 15.516 1.222 24.875 4.928C386.953 355.722 392.332 357 403 357c8.525 0 13.855-1.21 22.495-4.402.366-.135 1.614-.598 1.785-.66 9.695-3.59 15.763-4.938 26.22-4.938 10.374 0 15.515 1.222 24.875 4.928C487.953 355.722 493.332 357 504 357v-2c-10.374 0-15.515-1.222-24.875-4.928-9.578-3.794-14.957-5.072-25.625-5.072z"/><path d="M479.125 360.072C469.547 356.278 464.168 355 453.5 355c-10.732 0-17.024 1.397-26.927 5.063l-1.784.662c-2.5.924-4.707 1.675-6.791 2.275-4.947 1.426-9.197 2-14.998 2-6.911 0-11.499-.542-16.561-2-2.535-.731-5.189-1.691-8.314-2.928-9.578-3.794-14.957-5.072-25.625-5.072-10.732 0-17.023 1.397-26.927 5.063l-1.784.662c-2.5.924-4.707 1.675-6.791 2.275-4.947 1.426-9.197 2-14.998 2-6.842 0-11.386-.542-16.396-2-2.511-.731-5.139-1.691-8.232-2.928C267.889 356.278 262.563 355 252 355c-10.626 0-16.855 1.397-26.66 5.063l-1.767.662c-2.475.924-4.66 1.675-6.724 2.275-4.898 1.426-9.105 2-14.849 2-6.911 0-11.499-.542-16.56-2-2.536-.731-5.19-1.691-8.315-2.928-9.578-3.794-14.957-5.072-25.625-5.072-10.732 0-17.024 1.397-26.927 5.063l-1.784.662c-2.5.924-4.707 1.675-6.791 2.275-4.947 1.426-9.197 2-14.998 2-6.911 0-11.5-.542-16.56-2-2.536-.731-5.19-1.691-8.315-2.928C66.547 356.278 61.168 355 50.5 355c-10.732 0-17.024 1.397-26.927 5.063l-1.784.662c-2.5.924-4.707 1.675-6.791 2.275-4.947 1.426-9.197 2-14.998 2v2c8.158 0 13.39-1.108 21.396-4 .361-.13.727-.264 1.099-.402.366-.135 1.614-.598 1.785-.66C33.976 358.348 40.043 357 50.5 357c10.374 0 15.516 1.222 24.875 4.928.965.383 1.888.74 2.778 1.072 7.938 2.966 13.254 4 22.847 4 8.157 0 13.39-1.108 21.396-4 .361-.13.727-.264 1.099-.402.366-.135 1.614-.598 1.785-.66 9.696-3.59 15.763-4.938 26.22-4.938 10.374 0 15.515 1.222 24.875 4.928.965.383 1.888.74 2.778 1.072 7.938 2.966 13.254 4 22.847 4 8.077 0 13.258-1.108 21.184-4 .357-.13.72-.264 1.088-.402.363-.135 1.599-.598 1.768-.66 9.6-3.59 15.607-4.938 25.96-4.938 10.271 0 15.361 1.222 24.629 4.928.955.383 1.869.74 2.75 1.072 7.86 2.966 13.123 4 22.621 4 8.157 0 13.391-1.108 21.396-4 .36-.13.727-.264 1.099-.402l1.784-.66c9.697-3.59 15.764-4.938 26.221-4.938 10.374 0 15.516 1.222 24.875 4.928.965.383 1.889.74 2.777 1.072 7.938 2.966 13.255 4 22.848 4 8.157 0 13.391-1.108 21.396-4 .36-.13.727-.264 1.099-.402.366-.135 1.614-.598 1.785-.66 9.695-3.59 15.763-4.938 26.22-4.938 10.374 0 15.515 1.222 24.875 4.928.965.383 1.888.74 2.778 1.072 7.938 2.966 13.254 4 22.847 4v-2c-6.911 0-11.499-.542-16.56-2-2.536-.731-5.19-1.691-8.315-2.928zM453.5 446c-10.732 0-17.024 1.397-26.927 5.063l-1.784.662C416.355 454.84 411.245 456 403 456c-10.374 0-15.516-1.222-24.875-4.928-9.578-3.794-14.957-5.072-25.625-5.072-10.732 0-17.023 1.397-26.927 5.063l-1.784.662C315.355 454.84 310.245 456 302 456c-10.271 0-15.361-1.222-24.629-4.928C267.889 447.278 262.563 446 252 446c-10.626 0-16.855 1.397-26.66 5.063l-1.767.662C215.224 454.84 210.164 456 202 456c-10.374 0-15.515-1.222-24.875-4.928-9.578-3.794-14.957-5.072-25.625-5.072-10.732 0-17.024 1.397-26.927 5.063l-1.784.662C114.356 454.84 109.245 456 101 456c-10.374 0-15.516-1.222-24.875-4.928C66.547 447.278 61.168 446 50.5 446c-10.732 0-17.024 1.397-26.927 5.063l-1.784.662C13.356 454.84 8.245 456 0 456v2c8.525 0 13.855-1.21 22.495-4.402.366-.135 1.614-.598 1.785-.66C33.976 449.348 40.043 448 50.5 448c10.374 0 15.516 1.222 24.875 4.928C84.953 456.722 90.332 458 101 458c8.525 0 13.856-1.21 22.495-4.402.366-.135 1.614-.598 1.785-.66 9.696-3.59 15.763-4.938 26.22-4.938 10.374 0 15.515 1.222 24.875 4.928C185.953 456.722 191.332 458 202 458c8.441 0 13.718-1.21 22.272-4.402.363-.135 1.599-.598 1.768-.66 9.6-3.59 15.607-4.938 25.96-4.938 10.271 0 15.361 1.222 24.629 4.928C286.111 456.722 291.438 458 302 458c8.525 0 13.855-1.21 22.495-4.402l1.784-.66c9.697-3.59 15.764-4.938 26.221-4.938 10.374 0 15.516 1.222 24.875 4.928C386.953 456.722 392.332 458 403 458c8.525 0 13.855-1.21 22.495-4.402.366-.135 1.614-.598 1.785-.66 9.695-3.59 15.763-4.938 26.22-4.938 10.374 0 15.515 1.222 24.875 4.928C487.953 456.722 493.332 458 504 458v-2c-10.374 0-15.515-1.222-24.875-4.928-9.578-3.794-14.957-5.072-25.625-5.072z"/><path d="M479.125 461.072C469.547 457.278 464.168 456 453.5 456c-10.732 0-17.024 1.397-26.927 5.063l-1.784.662c-2.5.924-4.707 1.675-6.791 2.275-4.947 1.426-9.197 2-14.998 2-6.911 0-11.499-.542-16.561-2-2.535-.731-5.189-1.691-8.314-2.928-9.578-3.794-14.957-5.072-25.625-5.072-10.732 0-17.023 1.397-26.927 5.063l-1.784.662c-2.5.924-4.707 1.675-6.791 2.275-4.947 1.426-9.197 2-14.998 2-6.842 0-11.386-.542-16.396-2-2.511-.731-5.139-1.691-8.232-2.928C267.889 457.278 262.563 456 252 456c-10.626 0-16.855 1.397-26.66 5.063l-1.767.662c-2.475.924-4.66 1.675-6.724 2.275-4.898 1.426-9.105 2-14.849 2-6.911 0-11.499-.542-16.56-2-2.536-.731-5.19-1.691-8.315-2.928-9.578-3.794-14.957-5.072-25.625-5.072-10.732 0-17.024 1.397-26.927 5.063l-1.784.662c-2.5.924-4.707 1.675-6.791 2.275-4.947 1.426-9.197 2-14.998 2-6.911 0-11.5-.542-16.56-2-2.536-.731-5.19-1.691-8.315-2.928C66.547 457.278 61.168 456 50.5 456c-10.732 0-17.024 1.397-26.927 5.063l-1.784.662c-2.5.924-4.707 1.675-6.791 2.275-4.947 1.426-9.197 2-14.998 2v2c8.158 0 13.39-1.108 21.396-4 .361-.13.727-.264 1.099-.402.366-.135 1.614-.598 1.785-.66C33.976 459.348 40.043 458 50.5 458c10.374 0 15.516 1.222 24.875 4.928.965.383 1.888.74 2.778 1.072 7.938 2.966 13.254 4 22.847 4 8.157 0 13.39-1.108 21.396-4 .361-.13.727-.264 1.099-.402.366-.135 1.614-.598 1.785-.66 9.696-3.59 15.763-4.938 26.22-4.938 10.374 0 15.515 1.222 24.875 4.928.965.383 1.888.74 2.778 1.072 7.938 2.966 13.254 4 22.847 4 8.077 0 13.258-1.108 21.184-4 .357-.13.72-.264 1.088-.402.363-.135 1.599-.598 1.768-.66 9.6-3.59 15.607-4.938 25.96-4.938 10.271 0 15.361 1.222 24.629 4.928.955.383 1.869.74 2.75 1.072 7.86 2.966 13.123 4 22.621 4 8.157 0 13.391-1.108 21.396-4 .36-.13.727-.264 1.099-.402l1.784-.66c9.697-3.59 15.764-4.938 26.221-4.938 10.374 0 15.516 1.222 24.875 4.928.965.383 1.889.74 2.777 1.072 7.938 2.966 13.255 4 22.848 4 8.157 0 13.391-1.108 21.396-4 .36-.13.727-.264 1.099-.402.366-.135 1.614-.598 1.785-.66 9.695-3.59 15.763-4.938 26.22-4.938 10.374 0 15.515 1.222 24.875 4.928.965.383 1.888.74 2.778 1.072 7.938 2.966 13.254 4 22.847 4v-2c-6.911 0-11.499-.542-16.56-2-2.536-.731-5.19-1.691-8.315-2.928zM453.5 223.1c-10.732 0-17.024 1.467-26.927 5.316l-1.784.695c-8.434 3.271-13.544 4.489-21.789 4.489-10.374 0-15.516-1.283-24.875-5.175-9.578-3.983-14.957-5.325-25.625-5.325-10.732 0-17.023 1.467-26.927 5.316l-1.784.695c-8.434 3.271-13.544 4.489-21.789 4.489-10.271 0-15.361-1.283-24.629-5.175-9.482-3.983-14.809-5.325-25.371-5.325-10.626 0-16.855 1.467-26.66 5.316l-1.767.695c-8.349 3.271-13.409 4.489-21.573 4.489-10.374 0-15.515-1.283-24.875-5.175-9.578-3.983-14.957-5.325-25.625-5.325-10.732 0-17.024 1.467-26.927 5.316l-1.784.695c-8.433 3.271-13.544 4.489-21.789 4.489-10.374 0-15.516-1.283-24.875-5.175-9.578-3.983-14.957-5.325-25.625-5.325-10.732 0-17.024 1.467-26.927 5.316l-1.784.695C13.356 232.382 8.245 233.6 0 233.6v2.1c8.525 0 13.855-1.271 22.495-4.622l1.785-.694c9.696-3.769 15.763-5.184 26.22-5.184 10.374 0 15.516 1.283 24.875 5.175 9.578 3.983 14.957 5.325 25.625 5.325 8.525 0 13.856-1.271 22.495-4.622l1.785-.694c9.696-3.769 15.763-5.184 26.22-5.184 10.374 0 15.515 1.283 24.875 5.175 9.578 3.983 14.957 5.325 25.625 5.325 8.441 0 13.718-1.271 22.272-4.622l1.768-.694c9.6-3.769 15.607-5.184 25.96-5.184 10.271 0 15.361 1.283 24.629 5.175 9.482 3.983 14.809 5.325 25.371 5.325 8.525 0 13.855-1.271 22.495-4.622l1.784-.694c9.697-3.769 15.764-5.184 26.221-5.184 10.374 0 15.516 1.283 24.875 5.175 9.578 3.983 14.957 5.325 25.625 5.325 8.525 0 13.855-1.271 22.495-4.622l1.785-.694c9.695-3.769 15.763-5.184 26.22-5.184 10.374 0 15.515 1.283 24.875 5.175 9.578 3.983 14.957 5.325 25.625 5.325v-2.1c-10.374 0-15.515-1.283-24.875-5.175-9.578-3.983-14.957-5.325-25.625-5.325z"/><path d="M479.125 238.925c-9.578-3.983-14.957-5.325-25.625-5.325-10.732 0-17.024 1.467-26.927 5.316l-1.784.695c-2.5.969-4.707 1.758-6.791 2.389-4.947 1.426-9.197 2-14.998 2-6.911 0-11.499-.542-16.561-2-2.535-.767-5.189-1.776-8.314-3.075-9.578-3.983-14.957-5.325-25.625-5.325-10.732 0-17.023 1.467-26.927 5.316l-1.784.695c-2.5.969-4.707 1.758-6.791 2.389-4.947 1.426-9.197 2-14.998 2-6.842 0-11.386-.542-16.396-2-2.511-.767-5.139-1.776-8.232-3.075-9.482-3.983-14.809-5.325-25.371-5.325-10.626 0-16.855 1.467-26.66 5.316l-1.767.695c-2.475.969-4.66 1.758-6.724 2.389-4.898 1.426-9.105 2-14.849 2-6.911 0-11.499-.542-16.56-2-2.536-.767-5.19-1.776-8.315-3.075-9.578-3.983-14.957-5.325-25.625-5.325-10.732 0-17.024 1.467-26.927 5.316l-1.784.695c-2.5.969-4.707 1.758-6.791 2.389-4.947 1.426-9.197 2-14.998 2-6.911 0-11.5-.542-16.56-2-2.536-.767-5.19-1.776-8.315-3.075-9.578-3.983-14.957-5.325-25.625-5.325-10.732 0-17.024 1.467-26.927 5.316l-1.784.695c-2.5.969-4.707 1.758-6.791 2.389-4.947 1.426-9.197 2-14.998 2v2c8.158 0 13.39-1.108 21.396-4 .361-.137.727-.277 1.099-.422l1.785-.694c9.696-3.769 15.763-5.184 26.22-5.184 10.374 0 15.516 1.283 24.875 5.175A149.3 149.3 0 0078.154 242c7.938 2.966 13.254 4 22.847 4 8.157 0 13.39-1.108 21.396-4 .361-.137.727-.277 1.099-.422l1.785-.694c9.696-3.769 15.763-5.184 26.22-5.184 10.374 0 15.515 1.283 24.875 5.175a149.3 149.3 0 002.778 1.125c7.938 2.966 13.254 4 22.847 4 8.077 0 13.258-1.108 21.184-4 .357-.137.72-.277 1.088-.422l1.768-.694c9.6-3.769 15.607-5.184 25.96-5.184 10.271 0 15.361 1.283 24.629 5.175.955.401 1.869.776 2.75 1.125 7.86 2.966 13.123 4 22.621 4 8.157 0 13.391-1.108 21.396-4 .36-.137.727-.277 1.099-.422l1.784-.694c9.697-3.769 15.764-5.184 26.221-5.184 10.374 0 15.516 1.283 24.875 5.175.965.401 1.889.776 2.777 1.125 7.938 2.966 13.255 4 22.848 4 8.157 0 13.391-1.108 21.396-4 .36-.137.727-.277 1.099-.422l1.785-.694c9.695-3.769 15.763-5.184 26.22-5.184 10.374 0 15.515 1.283 24.875 5.175a149.3 149.3 0 002.778 1.125c7.938 2.966 13.254 4 22.847 4v-2c-6.911 0-11.499-.542-16.56-2-2.537-.767-5.191-1.776-8.316-3.075zm0 101c-9.578-3.982-14.957-5.325-25.625-5.325-10.732 0-17.024 1.468-26.927 5.316l-1.784.695c-2.5.969-4.707 1.758-6.791 2.389-4.947 1.426-9.197 2-14.998 2-6.911 0-11.499-.542-16.561-2-2.535-.767-5.189-1.776-8.314-3.075-9.578-3.982-14.957-5.325-25.625-5.325-10.732 0-17.023 1.468-26.927 5.316l-1.784.695c-2.5.969-4.707 1.758-6.791 2.389-4.947 1.426-9.197 2-14.998 2-6.842 0-11.386-.542-16.396-2-2.511-.767-5.139-1.776-8.232-3.075-9.482-3.982-14.809-5.325-25.371-5.325-10.626 0-16.855 1.468-26.66 5.316l-1.767.695c-2.475.969-4.66 1.758-6.724 2.389-4.898 1.426-9.105 2-14.849 2-6.911 0-11.499-.542-16.56-2-2.536-.767-5.19-1.776-8.315-3.075-9.578-3.982-14.957-5.325-25.625-5.325-10.732 0-17.024 1.468-26.927 5.316l-1.784.695c-2.5.969-4.707 1.758-6.791 2.389-4.947 1.426-9.197 2-14.998 2-6.911 0-11.5-.542-16.56-2-2.536-.767-5.19-1.776-8.315-3.075-9.578-3.982-14.957-5.325-25.625-5.325-10.732 0-17.024 1.468-26.927 5.316l-1.784.695c-2.5.969-4.707 1.758-6.791 2.389-4.947 1.426-9.197 2-14.998 2v2c8.158 0 13.39-1.108 21.396-4 .361-.137.727-.277 1.099-.422l1.785-.694c9.696-3.769 15.763-5.184 26.22-5.184 10.374 0 15.516 1.283 24.875 5.175A149.3 149.3 0 0078.154 343c7.938 2.966 13.254 4 22.847 4 8.157 0 13.39-1.108 21.396-4 .361-.137.727-.277 1.099-.422l1.785-.694c9.696-3.769 15.763-5.184 26.22-5.184 10.374 0 15.515 1.283 24.875 5.175a149.3 149.3 0 002.778 1.125c7.938 2.966 13.254 4 22.847 4 8.077 0 13.258-1.108 21.184-4 .357-.137.72-.277 1.088-.422l1.768-.694c9.6-3.769 15.607-5.184 25.96-5.184 10.271 0 15.361 1.283 24.629 5.175.955.401 1.869.776 2.75 1.125 7.86 2.966 13.123 4 22.621 4 8.157 0 13.391-1.108 21.396-4 .36-.137.727-.277 1.099-.422l1.784-.694c9.697-3.769 15.764-5.184 26.221-5.184 10.374 0 15.516 1.283 24.875 5.175.965.401 1.889.776 2.777 1.125 7.938 2.966 13.255 4 22.848 4 8.157 0 13.391-1.108 21.396-4 .36-.137.727-.277 1.099-.422l1.785-.694c9.695-3.769 15.763-5.184 26.22-5.184 10.374 0 15.515 1.283 24.875 5.175a149.3 149.3 0 002.778 1.125c7.938 2.966 13.254 4 22.847 4v-2c-6.911 0-11.499-.542-16.56-2-2.537-.767-5.191-1.776-8.316-3.075z"/><path d="M453.5 324.1c-10.732 0-17.024 1.468-26.927 5.316l-1.784.695c-8.434 3.271-13.544 4.488-21.789 4.488-10.374 0-15.516-1.282-24.875-5.175-9.578-3.982-14.957-5.325-25.625-5.325-10.732 0-17.023 1.468-26.927 5.316l-1.784.695c-8.434 3.271-13.544 4.488-21.789 4.488-10.271 0-15.361-1.282-24.629-5.175-9.482-3.982-14.809-5.325-25.371-5.325-10.626 0-16.855 1.468-26.66 5.316l-1.767.695c-8.349 3.271-13.409 4.488-21.573 4.488-10.374 0-15.515-1.282-24.875-5.175-9.578-3.982-14.957-5.325-25.625-5.325-10.732 0-17.024 1.468-26.927 5.316l-1.784.695c-8.433 3.271-13.544 4.488-21.789 4.488-10.374 0-15.516-1.282-24.875-5.175-9.578-3.982-14.957-5.325-25.625-5.325-10.732 0-17.024 1.468-26.927 5.316l-1.784.695C13.356 333.382 8.245 334.6 0 334.6v2.101c8.525 0 13.855-1.271 22.495-4.622l1.785-.694c9.696-3.769 15.763-5.184 26.22-5.184 10.374 0 15.516 1.283 24.875 5.175 9.578 3.983 14.957 5.325 25.625 5.325 8.525 0 13.856-1.271 22.495-4.622l1.785-.694c9.696-3.769 15.763-5.184 26.22-5.184 10.374 0 15.515 1.283 24.875 5.175 9.578 3.983 14.957 5.325 25.625 5.325 8.441 0 13.718-1.271 22.272-4.622l1.768-.694c9.6-3.769 15.607-5.184 25.96-5.184 10.271 0 15.361 1.283 24.629 5.175 9.482 3.983 14.809 5.325 25.371 5.325 8.525 0 13.855-1.271 22.495-4.622l1.784-.694c9.697-3.769 15.764-5.184 26.221-5.184 10.374 0 15.516 1.283 24.875 5.175 9.578 3.983 14.957 5.325 25.625 5.325 8.525 0 13.855-1.271 22.495-4.622l1.785-.694c9.695-3.769 15.763-5.184 26.22-5.184 10.374 0 15.515 1.283 24.875 5.175 9.578 3.983 14.957 5.325 25.625 5.325V334.6c-10.374 0-15.515-1.282-24.875-5.175-9.578-3.983-14.957-5.325-25.625-5.325zm0 101c-10.732 0-17.024 1.468-26.927 5.316l-1.784.695c-8.434 3.271-13.544 4.488-21.789 4.488-10.374 0-15.516-1.282-24.875-5.175-9.578-3.982-14.957-5.325-25.625-5.325-10.732 0-17.023 1.468-26.927 5.316l-1.784.695c-8.434 3.271-13.544 4.488-21.789 4.488-10.271 0-15.361-1.282-24.629-5.175-9.482-3.982-14.809-5.325-25.371-5.325-10.626 0-16.855 1.468-26.66 5.316l-1.767.695c-8.349 3.271-13.409 4.488-21.573 4.488-10.374 0-15.515-1.282-24.875-5.175-9.578-3.982-14.957-5.325-25.625-5.325-10.732 0-17.024 1.468-26.927 5.316l-1.784.695c-8.433 3.271-13.544 4.488-21.789 4.488-10.374 0-15.516-1.282-24.875-5.175-9.578-3.982-14.957-5.325-25.625-5.325-10.732 0-17.024 1.468-26.927 5.316l-1.784.695C13.356 434.382 8.245 435.6 0 435.6v2.101c8.525 0 13.855-1.271 22.495-4.622l1.785-.694c9.696-3.769 15.763-5.184 26.22-5.184 10.374 0 15.516 1.283 24.875 5.175 9.578 3.983 14.957 5.325 25.625 5.325 8.525 0 13.856-1.271 22.495-4.622l1.785-.694c9.696-3.769 15.763-5.184 26.22-5.184 10.374 0 15.515 1.283 24.875 5.175 9.578 3.983 14.957 5.325 25.625 5.325 8.441 0 13.718-1.271 22.272-4.622l1.768-.694c9.6-3.769 15.607-5.184 25.96-5.184 10.271 0 15.361 1.283 24.629 5.175 9.482 3.983 14.809 5.325 25.371 5.325 8.525 0 13.855-1.271 22.495-4.622l1.784-.694c9.697-3.769 15.764-5.184 26.221-5.184 10.374 0 15.516 1.283 24.875 5.175 9.578 3.983 14.957 5.325 25.625 5.325 8.525 0 13.855-1.271 22.495-4.622l1.785-.694c9.695-3.769 15.763-5.184 26.22-5.184 10.374 0 15.515 1.283 24.875 5.175 9.578 3.983 14.957 5.325 25.625 5.325V435.6c-10.374 0-15.515-1.282-24.875-5.175-9.578-3.983-14.957-5.325-25.625-5.325z"/><path d="M479.125 440.925c-9.578-3.982-14.957-5.325-25.625-5.325-10.732 0-17.024 1.468-26.927 5.316l-1.784.695c-2.5.969-4.707 1.758-6.791 2.389-4.947 1.426-9.197 2-14.998 2-6.911 0-11.499-.542-16.561-2-2.535-.767-5.189-1.776-8.314-3.075-9.578-3.982-14.957-5.325-25.625-5.325-10.732 0-17.023 1.468-26.927 5.316l-1.784.695c-2.5.969-4.707 1.758-6.791 2.389-4.947 1.426-9.197 2-14.998 2-6.842 0-11.386-.542-16.396-2-2.511-.767-5.139-1.776-8.232-3.075-9.482-3.982-14.809-5.325-25.371-5.325-10.626 0-16.855 1.468-26.66 5.316l-1.767.695c-2.475.969-4.66 1.758-6.724 2.389-4.898 1.426-9.105 2-14.849 2-6.911 0-11.499-.542-16.56-2-2.536-.767-5.19-1.776-8.315-3.075-9.578-3.982-14.957-5.325-25.625-5.325-10.732 0-17.024 1.468-26.927 5.316l-1.784.695c-2.5.969-4.707 1.758-6.791 2.389-4.947 1.426-9.197 2-14.998 2-6.911 0-11.5-.542-16.56-2-2.536-.767-5.19-1.776-8.315-3.075-9.578-3.982-14.957-5.325-25.625-5.325-10.732 0-17.024 1.468-26.927 5.316l-1.784.695c-2.5.969-4.707 1.758-6.791 2.389-4.947 1.426-9.197 2-14.998 2v2c8.158 0 13.39-1.108 21.396-4 .361-.137.727-.277 1.099-.422l1.785-.694c9.696-3.769 15.763-5.184 26.22-5.184 10.374 0 15.516 1.283 24.875 5.175A149.3 149.3 0 0078.154 444c7.938 2.966 13.254 4 22.847 4 8.157 0 13.39-1.108 21.396-4 .361-.137.727-.277 1.099-.422l1.785-.694c9.696-3.769 15.763-5.184 26.22-5.184 10.374 0 15.515 1.283 24.875 5.175a149.3 149.3 0 002.778 1.125c7.938 2.966 13.254 4 22.847 4 8.077 0 13.258-1.108 21.184-4 .357-.137.72-.277 1.088-.422l1.768-.694c9.6-3.769 15.607-5.184 25.96-5.184 10.271 0 15.361 1.283 24.629 5.175.955.401 1.869.776 2.75 1.125 7.86 2.966 13.123 4 22.621 4 8.157 0 13.391-1.108 21.396-4 .36-.137.727-.277 1.099-.422l1.784-.694c9.697-3.769 15.764-5.184 26.221-5.184 10.374 0 15.516 1.283 24.875 5.175.965.401 1.889.776 2.777 1.125 7.938 2.966 13.255 4 22.848 4 8.157 0 13.391-1.108 21.396-4 .36-.137.727-.277 1.099-.422l1.785-.694c9.695-3.769 15.763-5.184 26.22-5.184 10.374 0 15.515 1.283 24.875 5.175a149.3 149.3 0 002.778 1.125c7.938 2.966 13.254 4 22.847 4v-2c-6.911 0-11.499-.542-16.56-2-2.537-.767-5.191-1.776-8.316-3.075zm0-222.853C469.547 214.278 464.168 213 453.5 213c-10.732 0-17.024 1.397-26.927 5.063l-1.784.662c-2.5.923-4.707 1.674-6.791 2.275-4.947 1.497-9.197 2.1-14.998 2.1-6.911 0-11.499-.569-16.561-2.1-2.535-.731-5.189-1.691-8.314-2.928-9.578-3.794-14.957-5.072-25.625-5.072-10.732 0-17.023 1.397-26.927 5.063l-1.784.662c-2.5.923-4.707 1.674-6.791 2.275-4.947 1.497-9.197 2.1-14.998 2.1-6.842 0-11.386-.569-16.396-2.1-2.511-.731-5.139-1.691-8.232-2.928C267.889 214.278 262.563 213 252 213c-10.626 0-16.855 1.397-26.66 5.063l-1.767.662c-2.475.923-4.66 1.674-6.724 2.275-4.898 1.497-9.105 2.1-14.849 2.1-6.911 0-11.499-.569-16.56-2.1-2.536-.731-5.19-1.691-8.315-2.928-9.578-3.794-14.957-5.072-25.625-5.072-10.732 0-17.024 1.397-26.927 5.063l-1.784.662c-2.5.923-4.707 1.674-6.791 2.275-4.947 1.497-9.197 2.1-14.998 2.1-6.911 0-11.5-.569-16.56-2.1-2.536-.731-5.19-1.691-8.315-2.928C66.547 214.278 61.168 213 50.5 213c-10.732 0-17.024 1.397-26.927 5.063l-1.784.662c-2.5.923-4.707 1.674-6.791 2.275-4.947 1.497-9.197 2.1-14.998 2.1v2.1c8.158 0 13.39-1.163 21.396-4.2.361-.13.727-.264 1.099-.402l1.785-.661C33.976 216.348 40.043 215 50.5 215c10.374 0 15.516 1.222 24.875 4.928.965.383 1.888.74 2.778 1.072 7.938 3.115 13.254 4.2 22.847 4.2 8.157 0 13.39-1.163 21.396-4.2.361-.13.727-.264 1.099-.402l1.785-.661c9.696-3.589 15.763-4.937 26.22-4.937 10.374 0 15.515 1.222 24.875 4.928.965.383 1.888.74 2.778 1.072 7.938 3.115 13.254 4.2 22.847 4.2 8.077 0 13.258-1.163 21.184-4.2.357-.13.72-.264 1.088-.402l1.768-.661c9.6-3.589 15.607-4.937 25.96-4.937 10.271 0 15.361 1.222 24.629 4.928.955.383 1.869.74 2.75 1.072 7.86 3.115 13.123 4.2 22.621 4.2 8.157 0 13.391-1.163 21.396-4.2.36-.13.727-.264 1.099-.402l1.784-.661c9.697-3.589 15.764-4.937 26.221-4.937 10.374 0 15.516 1.222 24.875 4.928.965.383 1.889.74 2.777 1.072 7.938 3.115 13.255 4.2 22.848 4.2 8.157 0 13.391-1.163 21.396-4.2.36-.13.727-.264 1.099-.402l1.785-.661c9.695-3.589 15.763-4.937 26.22-4.937 10.374 0 15.515 1.222 24.875 4.928.965.383 1.888.74 2.778 1.072 7.938 3.115 13.254 4.2 22.847 4.2v-2.1c-6.911 0-11.499-.569-16.56-2.1-2.536-.731-5.19-1.691-8.315-2.928z"/><path d="M453.5 203c-10.732 0-17.024 1.397-26.927 5.063l-1.784.662C416.355 211.84 411.245 213 403 213c-10.374 0-15.516-1.222-24.875-4.928-9.578-3.794-14.957-5.072-25.625-5.072-10.732 0-17.023 1.397-26.927 5.063l-1.784.662C315.355 211.84 310.245 213 302 213c-10.271 0-15.361-1.222-24.629-4.928C267.889 204.278 262.563 203 252 203c-10.626 0-16.855 1.397-26.66 5.063l-1.767.662C215.224 211.84 210.164 213 202 213c-10.374 0-15.515-1.222-24.875-4.928-9.578-3.794-14.957-5.072-25.625-5.072-10.732 0-17.024 1.397-26.927 5.063l-1.784.662C114.356 211.84 109.245 213 101 213c-10.374 0-15.516-1.222-24.875-4.928C66.547 204.278 61.168 203 50.5 203c-10.732 0-17.024 1.397-26.927 5.063l-1.784.662C13.356 211.84 8.245 213 0 213v2c8.525 0 13.855-1.21 22.495-4.402l1.785-.661C33.976 206.348 40.043 205 50.5 205c10.374 0 15.516 1.222 24.875 4.928C84.953 213.722 90.332 215 101 215c8.525 0 13.856-1.21 22.495-4.402l1.785-.661c9.696-3.589 15.763-4.937 26.22-4.937 10.374 0 15.515 1.222 24.875 4.928C185.953 213.722 191.332 215 202 215c8.441 0 13.718-1.21 22.272-4.402l1.768-.661c9.6-3.589 15.607-4.937 25.96-4.937 10.271 0 15.361 1.222 24.629 4.928C286.111 213.722 291.438 215 302 215c8.525 0 13.855-1.21 22.495-4.402l1.784-.661c9.697-3.589 15.764-4.937 26.221-4.937 10.374 0 15.516 1.222 24.875 4.928C386.953 213.722 392.332 215 403 215c8.525 0 13.855-1.21 22.495-4.402l1.785-.661c9.695-3.589 15.763-4.937 26.22-4.937 10.374 0 15.515 1.222 24.875 4.928C487.953 213.722 493.332 215 504 215v-2c-10.374 0-15.515-1.222-24.875-4.928-9.578-3.794-14.957-5.072-25.625-5.072z"/><path d="M479.125 198.072C469.547 194.278 464.168 193 453.5 193c-10.732 0-17.024 1.397-26.927 5.063l-1.784.662c-2.5.923-4.707 1.674-6.791 2.275-4.947 1.426-9.197 2-14.998 2-6.911 0-11.499-.542-16.561-2-2.535-.731-5.189-1.691-8.314-2.928-9.578-3.794-14.957-5.072-25.625-5.072-10.732 0-17.023 1.397-26.927 5.063l-1.784.662c-2.5.923-4.707 1.674-6.791 2.275-4.947 1.426-9.197 2-14.998 2-6.842 0-11.386-.542-16.396-2-2.511-.731-5.139-1.691-8.232-2.928C267.889 194.278 262.563 193 252 193c-10.626 0-16.855 1.397-26.66 5.063l-1.767.662c-2.475.923-4.66 1.674-6.724 2.275-4.898 1.426-9.105 2-14.849 2-6.911 0-11.499-.542-16.56-2-2.536-.731-5.19-1.691-8.315-2.928-9.578-3.794-14.957-5.072-25.625-5.072-10.732 0-17.024 1.397-26.927 5.063l-1.784.662c-2.5.923-4.707 1.674-6.791 2.275-4.947 1.426-9.197 2-14.998 2-6.911 0-11.5-.542-16.56-2-2.536-.731-5.19-1.691-8.315-2.928C66.547 194.278 61.168 193 50.5 193c-10.732 0-17.024 1.397-26.927 5.063l-1.784.662c-2.5.923-4.707 1.674-6.791 2.275-4.947 1.426-9.197 2-14.998 2v2c8.158 0 13.39-1.108 21.396-4 .361-.13.727-.264 1.099-.402l1.785-.661C33.976 196.348 40.043 195 50.5 195c10.374 0 15.516 1.222 24.875 4.928.965.383 1.888.74 2.778 1.072 7.938 2.966 13.254 4 22.847 4 8.157 0 13.39-1.108 21.396-4 .361-.13.727-.264 1.099-.402l1.785-.661c9.696-3.589 15.763-4.937 26.22-4.937 10.374 0 15.515 1.222 24.875 4.928.965.383 1.888.74 2.778 1.072 7.938 2.966 13.254 4 22.847 4 8.077 0 13.258-1.108 21.184-4 .357-.13.72-.264 1.088-.402l1.768-.661c9.6-3.589 15.607-4.937 25.96-4.937 10.271 0 15.361 1.222 24.629 4.928.955.383 1.869.74 2.75 1.072 7.86 2.966 13.123 4 22.621 4 8.157 0 13.391-1.108 21.396-4 .36-.13.727-.264 1.099-.402l1.784-.661c9.697-3.589 15.764-4.937 26.221-4.937 10.374 0 15.516 1.222 24.875 4.928.965.383 1.889.74 2.777 1.072 7.938 2.966 13.255 4 22.848 4 8.157 0 13.391-1.108 21.396-4 .36-.13.727-.264 1.099-.402l1.785-.661c9.695-3.589 15.763-4.937 26.22-4.937 10.374 0 15.515 1.222 24.875 4.928.965.383 1.888.74 2.778 1.072 7.938 2.966 13.254 4 22.847 4v-2c-6.911 0-11.499-.542-16.56-2-2.536-.731-5.19-1.691-8.315-2.928z"/><path d="M453.5 183c-10.732 0-17.024 1.397-26.927 5.063l-1.784.662C416.355 191.84 411.245 193 403 193c-10.374 0-15.516-1.222-24.875-4.928-9.578-3.794-14.957-5.072-25.625-5.072-10.732 0-17.023 1.397-26.927 5.063l-1.784.662C315.355 191.84 310.245 193 302 193c-10.271 0-15.361-1.222-24.629-4.928C267.889 184.278 262.563 183 252 183c-10.626 0-16.855 1.397-26.66 5.063l-1.767.662C215.224 191.84 210.164 193 202 193c-10.374 0-15.515-1.222-24.875-4.928-9.578-3.794-14.957-5.072-25.625-5.072-10.732 0-17.024 1.397-26.927 5.063l-1.784.662C114.356 191.84 109.245 193 101 193c-10.374 0-15.516-1.222-24.875-4.928C66.547 184.278 61.168 183 50.5 183c-10.732 0-17.024 1.397-26.927 5.063l-1.784.662C13.356 191.84 8.245 193 0 193v2c8.525 0 13.855-1.21 22.495-4.402l1.785-.661C33.976 186.348 40.043 185 50.5 185c10.374 0 15.516 1.222 24.875 4.928C84.953 193.722 90.332 195 101 195c8.525 0 13.856-1.21 22.495-4.402l1.785-.661c9.696-3.589 15.763-4.937 26.22-4.937 10.374 0 15.515 1.222 24.875 4.928C185.953 193.722 191.332 195 202 195c8.441 0 13.718-1.21 22.272-4.402l1.768-.661c9.6-3.589 15.607-4.937 25.96-4.937 10.271 0 15.361 1.222 24.629 4.928C286.111 193.722 291.438 195 302 195c8.525 0 13.855-1.21 22.495-4.402l1.784-.661c9.697-3.589 15.764-4.937 26.221-4.937 10.374 0 15.516 1.222 24.875 4.928C386.953 193.722 392.332 195 403 195c8.525 0 13.855-1.21 22.495-4.402l1.785-.661c9.695-3.589 15.763-4.937 26.22-4.937 10.374 0 15.515 1.222 24.875 4.928C487.953 193.722 493.332 195 504 195v-2c-10.374 0-15.515-1.222-24.875-4.928-9.578-3.794-14.957-5.072-25.625-5.072zm0-20c-10.732 0-17.024 1.397-26.927 5.063l-1.784.662C416.355 171.84 411.245 173 403 173c-10.374 0-15.516-1.222-24.875-4.928-9.578-3.794-14.957-5.072-25.625-5.072-10.732 0-17.023 1.397-26.927 5.063l-1.784.662C315.355 171.84 310.245 173 302 173c-10.271 0-15.361-1.222-24.629-4.928C267.889 164.278 262.563 163 252 163c-10.626 0-16.855 1.397-26.66 5.063l-1.767.662C215.224 171.84 210.164 173 202 173c-10.374 0-15.515-1.222-24.875-4.928-9.578-3.794-14.957-5.072-25.625-5.072-10.732 0-17.024 1.397-26.927 5.063l-1.784.662C114.356 171.84 109.245 173 101 173c-10.374 0-15.516-1.222-24.875-4.928C66.547 164.278 61.168 163 50.5 163c-10.732 0-17.024 1.397-26.927 5.063l-1.784.662C13.356 171.84 8.245 173 0 173v2c8.525 0 13.855-1.21 22.495-4.402l1.785-.661C33.976 166.348 40.043 165 50.5 165c10.374 0 15.516 1.222 24.875 4.928C84.953 173.722 90.332 175 101 175c8.525 0 13.856-1.21 22.495-4.402l1.785-.661c9.696-3.589 15.763-4.937 26.22-4.937 10.374 0 15.515 1.222 24.875 4.928C185.953 173.722 191.332 175 202 175c8.441 0 13.718-1.21 22.272-4.402l1.768-.661c9.6-3.589 15.607-4.937 25.96-4.937 10.271 0 15.361 1.222 24.629 4.928C286.111 173.722 291.438 175 302 175c8.525 0 13.855-1.21 22.495-4.402l1.784-.661c9.697-3.589 15.764-4.937 26.221-4.937 10.374 0 15.516 1.222 24.875 4.928C386.953 173.722 392.332 175 403 175c8.525 0 13.855-1.21 22.495-4.402l1.785-.661c9.695-3.589 15.763-4.937 26.22-4.937 10.374 0 15.515 1.222 24.875 4.928C487.953 173.722 493.332 175 504 175v-2c-10.374 0-15.515-1.222-24.875-4.928-9.578-3.794-14.957-5.072-25.625-5.072z"/><path d="M479.125 178.072C469.547 174.278 464.168 173 453.5 173c-10.732 0-17.024 1.397-26.927 5.063l-1.784.662c-2.5.923-4.707 1.674-6.791 2.275-4.947 1.426-9.197 2-14.998 2-6.911 0-11.499-.542-16.561-2-2.535-.731-5.189-1.691-8.314-2.928-9.578-3.794-14.957-5.072-25.625-5.072-10.732 0-17.023 1.397-26.927 5.063l-1.784.662c-2.5.923-4.707 1.674-6.791 2.275-4.947 1.426-9.197 2-14.998 2-6.842 0-11.386-.542-16.396-2-2.511-.731-5.139-1.691-8.232-2.928C267.889 174.278 262.563 173 252 173c-10.626 0-16.855 1.397-26.66 5.063l-1.767.662c-2.475.923-4.66 1.674-6.724 2.275-4.898 1.426-9.105 2-14.849 2-6.911 0-11.499-.542-16.56-2-2.536-.731-5.19-1.691-8.315-2.928-9.578-3.794-14.957-5.072-25.625-5.072-10.732 0-17.024 1.397-26.927 5.063l-1.784.662c-2.5.923-4.707 1.674-6.791 2.275-4.947 1.426-9.197 2-14.998 2-6.911 0-11.5-.542-16.56-2-2.536-.731-5.19-1.691-8.315-2.928C66.547 174.278 61.168 173 50.5 173c-10.732 0-17.024 1.397-26.927 5.063l-1.784.662c-2.5.923-4.707 1.674-6.791 2.275-4.947 1.426-9.197 2-14.998 2v2c8.158 0 13.39-1.108 21.396-4 .361-.13.727-.264 1.099-.402l1.785-.661C33.976 176.348 40.043 175 50.5 175c10.374 0 15.516 1.222 24.875 4.928.965.383 1.888.74 2.778 1.072 7.938 2.966 13.254 4 22.847 4 8.157 0 13.39-1.108 21.396-4 .361-.13.727-.264 1.099-.402l1.785-.661c9.696-3.589 15.763-4.937 26.22-4.937 10.374 0 15.515 1.222 24.875 4.928.965.383 1.888.74 2.778 1.072 7.938 2.966 13.254 4 22.847 4 8.077 0 13.258-1.108 21.184-4 .357-.13.72-.264 1.088-.402l1.768-.661c9.6-3.589 15.607-4.937 25.96-4.937 10.271 0 15.361 1.222 24.629 4.928.955.383 1.869.74 2.75 1.072 7.86 2.966 13.123 4 22.621 4 8.157 0 13.391-1.108 21.396-4 .36-.13.727-.264 1.099-.402l1.784-.661c9.697-3.589 15.764-4.937 26.221-4.937 10.374 0 15.516 1.222 24.875 4.928.965.383 1.889.74 2.777 1.072 7.938 2.966 13.255 4 22.848 4 8.157 0 13.391-1.108 21.396-4 .36-.13.727-.264 1.099-.402l1.785-.661c9.695-3.589 15.763-4.937 26.22-4.937 10.374 0 15.515 1.222 24.875 4.928.965.383 1.888.74 2.778 1.072 7.938 2.966 13.254 4 22.847 4v-2c-6.911 0-11.499-.542-16.56-2-2.536-.731-5.19-1.691-8.315-2.928zM453.5 143c-10.732 0-17.024 1.397-26.927 5.063l-1.784.662C416.355 151.84 411.245 153 403 153c-10.374 0-15.516-1.222-24.875-4.928-9.578-3.794-14.957-5.072-25.625-5.072-10.732 0-17.023 1.397-26.927 5.063l-1.784.662C315.355 151.84 310.245 153 302 153c-10.271 0-15.361-1.222-24.629-4.928C267.889 144.278 262.563 143 252 143c-10.626 0-16.855 1.397-26.66 5.063l-1.767.662C215.224 151.84 210.164 153 202 153c-10.374 0-15.515-1.222-24.875-4.928-9.578-3.794-14.957-5.072-25.625-5.072-10.732 0-17.024 1.397-26.927 5.063l-1.784.662C114.356 151.84 109.245 153 101 153c-10.374 0-15.516-1.222-24.875-4.928C66.547 144.278 61.168 143 50.5 143c-10.732 0-17.024 1.397-26.927 5.063l-1.784.662C13.356 151.84 8.245 153 0 153v2c8.525 0 13.855-1.21 22.495-4.402l1.785-.661C33.976 146.348 40.043 145 50.5 145c10.374 0 15.516 1.222 24.875 4.928C84.953 153.722 90.332 155 101 155c8.525 0 13.856-1.21 22.495-4.402l1.785-.661c9.696-3.589 15.763-4.937 26.22-4.937 10.374 0 15.515 1.222 24.875 4.928C185.953 153.722 191.332 155 202 155c8.441 0 13.718-1.21 22.272-4.402l1.768-.661c9.6-3.589 15.607-4.937 25.96-4.937 10.271 0 15.361 1.222 24.629 4.928C286.111 153.722 291.438 155 302 155c8.525 0 13.855-1.21 22.495-4.402l1.784-.661c9.697-3.589 15.764-4.937 26.221-4.937 10.374 0 15.516 1.222 24.875 4.928C386.953 153.722 392.332 155 403 155c8.525 0 13.855-1.21 22.495-4.402l1.785-.661c9.695-3.589 15.763-4.937 26.22-4.937 10.374 0 15.515 1.222 24.875 4.928C487.953 153.722 493.332 155 504 155v-2c-10.374 0-15.515-1.222-24.875-4.928-9.578-3.794-14.957-5.072-25.625-5.072z"/><path d="M479.125 158.072C469.547 154.278 464.168 153 453.5 153c-10.732 0-17.024 1.397-26.927 5.063l-1.784.662c-2.5.923-4.707 1.674-6.791 2.275-4.947 1.426-9.197 2-14.998 2-6.911 0-11.499-.542-16.561-2-2.535-.731-5.189-1.691-8.314-2.928-9.578-3.794-14.957-5.072-25.625-5.072-10.732 0-17.023 1.397-26.927 5.063l-1.784.662c-2.5.923-4.707 1.674-6.791 2.275-4.947 1.426-9.197 2-14.998 2-6.842 0-11.386-.542-16.396-2-2.511-.731-5.139-1.691-8.232-2.928C267.889 154.278 262.563 153 252 153c-10.626 0-16.855 1.397-26.66 5.063l-1.767.662c-2.475.923-4.66 1.674-6.724 2.275-4.898 1.426-9.105 2-14.849 2-6.911 0-11.499-.542-16.56-2-2.536-.731-5.19-1.691-8.315-2.928-9.578-3.794-14.957-5.072-25.625-5.072-10.732 0-17.024 1.397-26.927 5.063l-1.784.662c-2.5.923-4.707 1.674-6.791 2.275-4.947 1.426-9.197 2-14.998 2-6.911 0-11.5-.542-16.56-2-2.536-.731-5.19-1.691-8.315-2.928C66.547 154.278 61.168 153 50.5 153c-10.732 0-17.024 1.397-26.927 5.063l-1.784.662c-2.5.923-4.707 1.674-6.791 2.275-4.947 1.426-9.197 2-14.998 2v2c8.158 0 13.39-1.108 21.396-4 .361-.13.727-.264 1.099-.402l1.785-.661C33.976 156.348 40.043 155 50.5 155c10.374 0 15.516 1.222 24.875 4.928.965.383 1.888.74 2.778 1.072 7.938 2.966 13.254 4 22.847 4 8.157 0 13.39-1.108 21.396-4 .361-.13.727-.264 1.099-.402l1.785-.661c9.696-3.589 15.763-4.937 26.22-4.937 10.374 0 15.515 1.222 24.875 4.928.965.383 1.888.74 2.778 1.072 7.938 2.966 13.254 4 22.847 4 8.077 0 13.258-1.108 21.184-4 .357-.13.72-.264 1.088-.402l1.768-.661c9.6-3.589 15.607-4.937 25.96-4.937 10.271 0 15.361 1.222 24.629 4.928.955.383 1.869.74 2.75 1.072 7.86 2.966 13.123 4 22.621 4 8.157 0 13.391-1.108 21.396-4 .36-.13.727-.264 1.099-.402l1.784-.661c9.697-3.589 15.764-4.937 26.221-4.937 10.374 0 15.516 1.222 24.875 4.928.965.383 1.889.74 2.777 1.072 7.938 2.966 13.255 4 22.848 4 8.157 0 13.391-1.108 21.396-4 .36-.13.727-.264 1.099-.402l1.785-.661c9.695-3.589 15.763-4.937 26.22-4.937 10.374 0 15.515 1.222 24.875 4.928.965.383 1.888.74 2.778 1.072 7.938 2.966 13.254 4 22.847 4v-2c-6.911 0-11.499-.542-16.56-2-2.536-.731-5.19-1.691-8.315-2.928zM453.5 123c-10.732 0-17.024 1.397-26.927 5.063l-1.784.662C416.355 131.84 411.245 133 403 133c-10.374 0-15.516-1.222-24.875-4.928-9.578-3.794-14.957-5.072-25.625-5.072-10.732 0-17.023 1.397-26.927 5.063l-1.784.662C315.355 131.84 310.245 133 302 133c-10.271 0-15.361-1.222-24.629-4.928C267.889 124.278 262.563 123 252 123c-10.626 0-16.855 1.397-26.66 5.063l-1.767.662C215.224 131.84 210.164 133 202 133c-10.374 0-15.515-1.222-24.875-4.928-9.578-3.794-14.957-5.072-25.625-5.072-10.732 0-17.024 1.397-26.927 5.063l-1.784.662C114.356 131.84 109.245 133 101 133c-10.374 0-15.516-1.222-24.875-4.928C66.547 124.278 61.168 123 50.5 123c-10.732 0-17.024 1.397-26.927 5.063l-1.784.662C13.356 131.84 8.245 133 0 133v2c8.525 0 13.855-1.21 22.495-4.402l1.785-.661C33.976 126.348 40.043 125 50.5 125c10.374 0 15.516 1.222 24.875 4.928C84.953 133.722 90.332 135 101 135c8.525 0 13.856-1.21 22.495-4.402l1.785-.661c9.696-3.589 15.763-4.937 26.22-4.937 10.374 0 15.515 1.222 24.875 4.928C185.953 133.722 191.332 135 202 135c8.441 0 13.718-1.21 22.272-4.402l1.768-.661c9.6-3.589 15.607-4.937 25.96-4.937 10.271 0 15.361 1.222 24.629 4.928C286.111 133.722 291.438 135 302 135c8.525 0 13.855-1.21 22.495-4.402l1.784-.661c9.697-3.589 15.764-4.937 26.221-4.937 10.374 0 15.516 1.222 24.875 4.928C386.953 133.722 392.332 135 403 135c8.525 0 13.855-1.21 22.495-4.402l1.785-.661c9.695-3.589 15.763-4.937 26.22-4.937 10.374 0 15.515 1.222 24.875 4.928C487.953 133.722 493.332 135 504 135v-2c-10.374 0-15.515-1.222-24.875-4.928-9.578-3.794-14.957-5.072-25.625-5.072z"/><path d="M479.125 138.072C469.547 134.278 464.168 133 453.5 133c-10.732 0-17.024 1.397-26.927 5.063l-1.784.662c-2.5.923-4.707 1.674-6.791 2.275-4.947 1.426-9.197 2-14.998 2-6.911 0-11.499-.542-16.561-2-2.535-.731-5.189-1.691-8.314-2.928-9.578-3.794-14.957-5.072-25.625-5.072-10.732 0-17.023 1.397-26.927 5.063l-1.784.662c-2.5.923-4.707 1.674-6.791 2.275-4.947 1.426-9.197 2-14.998 2-6.842 0-11.386-.542-16.396-2-2.511-.731-5.139-1.691-8.232-2.928C267.889 134.278 262.563 133 252 133c-10.626 0-16.855 1.397-26.66 5.063l-1.767.662c-2.475.923-4.66 1.674-6.724 2.275-4.898 1.426-9.105 2-14.849 2-6.911 0-11.499-.542-16.56-2-2.536-.731-5.19-1.691-8.315-2.928-9.578-3.794-14.957-5.072-25.625-5.072-10.732 0-17.024 1.397-26.927 5.063l-1.784.662c-2.5.923-4.707 1.674-6.791 2.275-4.947 1.426-9.197 2-14.998 2-6.911 0-11.5-.542-16.56-2-2.536-.731-5.19-1.691-8.315-2.928C66.547 134.278 61.168 133 50.5 133c-10.732 0-17.024 1.397-26.927 5.063l-1.784.662c-2.5.923-4.707 1.674-6.791 2.275-4.947 1.426-9.197 2-14.998 2v2c8.158 0 13.39-1.108 21.396-4 .361-.13.727-.264 1.099-.402l1.785-.661C33.976 136.348 40.043 135 50.5 135c10.374 0 15.516 1.222 24.875 4.928.965.383 1.888.74 2.778 1.072 7.938 2.966 13.254 4 22.847 4 8.157 0 13.39-1.108 21.396-4 .361-.13.727-.264 1.099-.402l1.785-.661c9.696-3.589 15.763-4.937 26.22-4.937 10.374 0 15.515 1.222 24.875 4.928.965.383 1.888.74 2.778 1.072 7.938 2.966 13.254 4 22.847 4 8.077 0 13.258-1.108 21.184-4 .357-.13.72-.264 1.088-.402l1.768-.661c9.6-3.589 15.607-4.937 25.96-4.937 10.271 0 15.361 1.222 24.629 4.928.955.383 1.869.74 2.75 1.072 7.86 2.966 13.123 4 22.621 4 8.157 0 13.391-1.108 21.396-4 .36-.13.727-.264 1.099-.402l1.784-.661c9.697-3.589 15.764-4.937 26.221-4.937 10.374 0 15.516 1.222 24.875 4.928.965.383 1.889.74 2.777 1.072 7.938 2.966 13.255 4 22.848 4 8.157 0 13.391-1.108 21.396-4 .36-.13.727-.264 1.099-.402l1.785-.661c9.695-3.589 15.763-4.937 26.22-4.937 10.374 0 15.515 1.222 24.875 4.928.965.383 1.888.74 2.778 1.072 7.938 2.966 13.254 4 22.847 4v-2c-6.911 0-11.499-.542-16.56-2-2.536-.731-5.19-1.691-8.315-2.928zm0-20C469.547 114.278 464.168 113 453.5 113c-10.732 0-17.024 1.397-26.927 5.063l-1.784.662c-2.5.923-4.707 1.674-6.791 2.275-4.947 1.426-9.197 2-14.998 2-6.911 0-11.499-.542-16.561-2-2.535-.731-5.189-1.691-8.314-2.928-9.578-3.794-14.957-5.072-25.625-5.072-10.732 0-17.023 1.397-26.927 5.063l-1.784.662c-2.5.923-4.707 1.674-6.791 2.275-4.947 1.426-9.197 2-14.998 2-6.842 0-11.386-.542-16.396-2-2.511-.731-5.139-1.691-8.232-2.928C267.889 114.278 262.563 113 252 113c-10.626 0-16.855 1.397-26.66 5.063l-1.767.662c-2.475.923-4.66 1.674-6.724 2.275-4.898 1.426-9.105 2-14.849 2-6.911 0-11.499-.542-16.56-2-2.536-.731-5.19-1.691-8.315-2.928-9.578-3.794-14.957-5.072-25.625-5.072-10.732 0-17.024 1.397-26.927 5.063l-1.784.662c-2.5.923-4.707 1.674-6.791 2.275-4.947 1.426-9.197 2-14.998 2-6.911 0-11.5-.542-16.56-2-2.536-.731-5.19-1.691-8.315-2.928C66.547 114.278 61.168 113 50.5 113c-10.732 0-17.024 1.397-26.927 5.063l-1.784.662c-2.5.923-4.707 1.674-6.791 2.275-4.947 1.426-9.197 2-14.998 2v2c8.158 0 13.39-1.108 21.396-4 .361-.13.727-.264 1.099-.402l1.785-.661C33.976 116.348 40.043 115 50.5 115c10.374 0 15.516 1.222 24.875 4.928.965.383 1.888.74 2.778 1.072 7.938 2.966 13.254 4 22.847 4 8.157 0 13.39-1.108 21.396-4 .361-.13.727-.264 1.099-.402l1.785-.661c9.696-3.589 15.763-4.937 26.22-4.937 10.374 0 15.515 1.222 24.875 4.928.965.383 1.888.74 2.778 1.072 7.938 2.966 13.254 4 22.847 4 8.077 0 13.258-1.108 21.184-4 .357-.13.72-.264 1.088-.402l1.768-.661c9.6-3.589 15.607-4.937 25.96-4.937 10.271 0 15.361 1.222 24.629 4.928.955.383 1.869.74 2.75 1.072 7.86 2.966 13.123 4 22.621 4 8.157 0 13.391-1.108 21.396-4 .36-.13.727-.264 1.099-.402l1.784-.661c9.697-3.589 15.764-4.937 26.221-4.937 10.374 0 15.516 1.222 24.875 4.928.965.383 1.889.74 2.777 1.072 7.938 2.966 13.255 4 22.848 4 8.157 0 13.391-1.108 21.396-4 .36-.13.727-.264 1.099-.402l1.785-.661c9.695-3.589 15.763-4.937 26.22-4.937 10.374 0 15.515 1.222 24.875 4.928.965.383 1.888.74 2.778 1.072 7.938 2.966 13.254 4 22.847 4v-2c-6.911 0-11.499-.542-16.56-2-2.536-.731-5.19-1.691-8.315-2.928z"/><path d="M453.5 103c-10.732 0-17.024 1.397-26.927 5.063l-1.784.662C416.355 111.84 411.245 113 403 113c-10.374 0-15.516-1.222-24.875-4.928-9.578-3.794-14.957-5.072-25.625-5.072-10.732 0-17.023 1.397-26.927 5.063l-1.784.662C315.355 111.84 310.245 113 302 113c-10.271 0-15.361-1.222-24.629-4.928C267.889 104.278 262.563 103 252 103c-10.626 0-16.855 1.397-26.66 5.063l-1.767.662C215.224 111.84 210.164 113 202 113c-10.374 0-15.515-1.222-24.875-4.928-9.578-3.794-14.957-5.072-25.625-5.072-10.732 0-17.024 1.397-26.927 5.063l-1.784.662C114.356 111.84 109.245 113 101 113c-10.374 0-15.516-1.222-24.875-4.928C66.547 104.278 61.168 103 50.5 103c-10.732 0-17.024 1.397-26.927 5.063l-1.784.662C13.356 111.84 8.245 113 0 113v2c8.525 0 13.855-1.21 22.495-4.402l1.785-.661C33.976 106.348 40.043 105 50.5 105c10.374 0 15.516 1.222 24.875 4.928C84.953 113.722 90.332 115 101 115c8.525 0 13.856-1.21 22.495-4.402l1.785-.661c9.696-3.589 15.763-4.937 26.22-4.937 10.374 0 15.515 1.222 24.875 4.928C185.953 113.722 191.332 115 202 115c8.441 0 13.718-1.21 22.272-4.402l1.768-.661c9.6-3.589 15.607-4.937 25.96-4.937 10.271 0 15.361 1.222 24.629 4.928C286.111 113.722 291.438 115 302 115c8.525 0 13.855-1.21 22.495-4.402l1.784-.661c9.697-3.589 15.764-4.937 26.221-4.937 10.374 0 15.516 1.222 24.875 4.928C386.953 113.722 392.332 115 403 115c8.525 0 13.855-1.21 22.495-4.402l1.785-.661c9.695-3.589 15.763-4.937 26.22-4.937 10.374 0 15.515 1.222 24.875 4.928C487.953 113.722 493.332 115 504 115v-2c-10.374 0-15.515-1.222-24.875-4.928-9.578-3.794-14.957-5.072-25.625-5.072zm0-20.9c-10.732 0-17.024 1.467-26.927 5.316l-1.784.694c-8.434 3.272-13.544 4.49-21.789 4.49-10.374 0-15.516-1.283-24.875-5.175-9.578-3.983-14.957-5.325-25.625-5.325-10.732 0-17.023 1.467-26.927 5.316l-1.784.694c-8.434 3.272-13.544 4.49-21.789 4.49-10.271 0-15.361-1.283-24.629-5.175C267.889 83.442 262.563 82.1 252 82.1c-10.626 0-16.855 1.467-26.66 5.316l-1.767.694c-8.349 3.272-13.409 4.49-21.573 4.49-10.374 0-15.515-1.283-24.875-5.175-9.578-3.983-14.957-5.325-25.625-5.325-10.732 0-17.024 1.467-26.927 5.316l-1.784.694c-8.433 3.272-13.544 4.49-21.789 4.49-10.374 0-15.516-1.283-24.875-5.175C66.547 83.442 61.168 82.1 50.5 82.1c-10.732 0-17.024 1.467-26.927 5.316l-1.784.694C13.356 91.382 8.245 92.6 0 92.6v2.1c8.525 0 13.855-1.271 22.495-4.622l1.785-.695C33.976 85.615 40.043 84.2 50.5 84.2c10.374 0 15.516 1.283 24.875 5.175C84.953 93.358 90.332 94.7 101 94.7c8.525 0 13.856-1.271 22.495-4.622l1.785-.695c9.696-3.769 15.763-5.183 26.22-5.183 10.374 0 15.515 1.283 24.875 5.175C185.953 93.358 191.332 94.7 202 94.7c8.441 0 13.718-1.271 22.272-4.622l1.768-.695c9.6-3.769 15.607-5.183 25.96-5.183 10.271 0 15.361 1.283 24.629 5.175C286.111 93.358 291.438 94.7 302 94.7c8.525 0 13.855-1.271 22.495-4.622l1.784-.695c9.697-3.769 15.764-5.183 26.221-5.183 10.374 0 15.516 1.283 24.875 5.175C386.953 93.358 392.332 94.7 403 94.7c8.525 0 13.855-1.271 22.495-4.622l1.785-.695c9.695-3.769 15.763-5.183 26.22-5.183 10.374 0 15.515 1.283 24.875 5.175C487.953 93.358 493.332 94.7 504 94.7v-2.1c-10.374 0-15.515-1.283-24.875-5.175-9.578-3.983-14.957-5.325-25.625-5.325z"/><path d="M479.125 97.925c-9.578-3.983-14.957-5.325-25.625-5.325-10.732 0-17.024 1.467-26.927 5.316l-1.784.694c-2.5.969-4.707 1.758-6.791 2.389-4.947 1.426-9.197 2-14.998 2-6.911 0-11.499-.542-16.561-2-2.535-.767-5.189-1.775-8.314-3.075-9.578-3.983-14.957-5.325-25.625-5.325-10.732 0-17.023 1.467-26.927 5.316l-1.784.694c-2.5.969-4.707 1.758-6.791 2.389-4.947 1.426-9.197 2-14.998 2-6.842 0-11.386-.542-16.396-2-2.511-.767-5.139-1.775-8.232-3.075C267.889 93.942 262.563 92.6 252 92.6c-10.626 0-16.855 1.467-26.66 5.316l-1.767.694c-2.475.969-4.66 1.758-6.724 2.389-4.898 1.426-9.105 2-14.849 2-6.911 0-11.499-.542-16.56-2-2.536-.767-5.19-1.775-8.315-3.075-9.578-3.983-14.957-5.325-25.625-5.325-10.732 0-17.024 1.467-26.927 5.316l-1.784.694c-2.5.969-4.707 1.758-6.791 2.389-4.947 1.426-9.197 2-14.998 2-6.911 0-11.5-.542-16.56-2-2.536-.767-5.19-1.775-8.315-3.075C66.547 93.942 61.168 92.6 50.5 92.6c-10.732 0-17.024 1.467-26.927 5.316l-1.784.694c-2.5.969-4.707 1.758-6.791 2.389-4.947 1.426-9.197 2-14.998 2v2c8.158 0 13.39-1.108 21.396-4 .361-.137.727-.277 1.099-.422l1.785-.695C33.976 96.115 40.043 94.7 50.5 94.7c10.374 0 15.516 1.283 24.875 5.175A149.3 149.3 0 0078.153 101c7.938 2.966 13.254 4 22.847 4 8.157 0 13.39-1.108 21.396-4 .361-.137.727-.277 1.099-.422l1.785-.695c9.696-3.769 15.763-5.183 26.22-5.183 10.374 0 15.515 1.283 24.875 5.175a149.3 149.3 0 002.778 1.125c7.938 2.966 13.254 4 22.847 4 8.077 0 13.258-1.108 21.184-4 .357-.137.72-.277 1.088-.422l1.768-.695c9.6-3.769 15.607-5.183 25.96-5.183 10.271 0 15.361 1.283 24.629 5.175.955.401 1.869.776 2.75 1.125 7.86 2.966 13.123 4 22.621 4 8.157 0 13.391-1.108 21.396-4 .36-.137.727-.277 1.099-.422l1.784-.695c9.697-3.769 15.764-5.183 26.221-5.183 10.374 0 15.516 1.283 24.875 5.175.965.401 1.889.776 2.777 1.125 7.938 2.966 13.255 4 22.848 4 8.157 0 13.391-1.108 21.396-4 .36-.137.727-.277 1.099-.422l1.785-.695c9.695-3.769 15.763-5.183 26.22-5.183 10.374 0 15.515 1.283 24.875 5.175a149.3 149.3 0 002.778 1.125c7.938 2.966 13.254 4 22.847 4v-2c-6.911 0-11.499-.542-16.56-2-2.536-.767-5.19-1.775-8.315-3.075zM453.5 62c-10.732 0-17.024 1.397-26.927 5.063l-1.784.661C416.355 70.84 411.245 72 403 72c-10.374 0-15.516-1.222-24.875-4.929C368.547 63.278 363.168 62 352.5 62c-10.732 0-17.023 1.397-26.927 5.063-.173.063-1.421.526-1.784.661C315.355 70.84 310.245 72 302 72c-10.271 0-15.361-1.222-24.629-4.929C267.889 63.278 262.563 62 252 62c-10.626 0-16.855 1.397-26.66 5.063l-1.767.661C215.224 70.84 210.164 72 202 72c-10.374 0-15.515-1.222-24.875-4.929C167.547 63.278 162.168 62 151.5 62c-10.732 0-17.024 1.397-26.927 5.063l-1.784.661C114.356 70.84 109.245 72 101 72c-10.374 0-15.516-1.222-24.875-4.929C66.547 63.278 61.168 62 50.5 62c-10.732 0-17.024 1.397-26.927 5.063l-1.784.661C13.356 70.84 8.245 72 0 72v2c8.525 0 13.855-1.21 22.495-4.402l1.785-.662C33.976 65.348 40.043 64 50.5 64c10.374 0 15.516 1.222 24.875 4.929C84.953 72.722 90.332 74 101 74c8.525 0 13.856-1.21 22.495-4.402l1.785-.662C134.976 65.348 141.043 64 151.5 64c10.374 0 15.515 1.222 24.875 4.929C185.953 72.722 191.332 74 202 74c8.441 0 13.718-1.21 22.272-4.402l1.768-.662C235.64 65.348 241.647 64 252 64c10.271 0 15.361 1.222 24.629 4.929C286.111 72.722 291.438 74 302 74c8.525 0 13.855-1.21 22.495-4.402l1.784-.662C335.977 65.348 342.043 64 352.5 64c10.374 0 15.516 1.222 24.875 4.929C386.953 72.722 392.332 74 403 74c8.525 0 13.855-1.21 22.495-4.402l1.785-.662C436.976 65.348 443.043 64 453.5 64c10.374 0 15.515 1.222 24.875 4.929C487.953 72.722 493.332 74 504 74v-2c-10.374 0-15.515-1.222-24.875-4.929C469.547 63.278 464.168 62 453.5 62z"/><path d="M479.125 77.071C469.547 73.278 464.168 72 453.5 72c-10.732 0-17.024 1.397-26.927 5.063l-1.784.661c-2.5.923-4.707 1.675-6.791 2.275-4.947 1.497-9.197 2.1-14.998 2.1-6.911 0-11.499-.569-16.561-2.1-2.535-.73-5.189-1.691-8.314-2.929C368.547 73.278 363.168 72 352.5 72c-10.732 0-17.023 1.397-26.927 5.063-.173.063-1.421.526-1.784.661-2.5.923-4.707 1.675-6.791 2.275-4.947 1.497-9.197 2.1-14.998 2.1-6.842 0-11.386-.569-16.396-2.1-2.511-.73-5.139-1.691-8.232-2.929C267.889 73.278 262.563 72 252 72c-10.626 0-16.855 1.397-26.66 5.063l-1.767.661c-2.475.923-4.66 1.675-6.724 2.275-4.898 1.497-9.105 2.1-14.849 2.1-6.911 0-11.499-.569-16.56-2.1-2.536-.73-5.19-1.691-8.315-2.929C167.547 73.278 162.168 72 151.5 72c-10.732 0-17.024 1.397-26.927 5.063l-1.784.661c-2.5.923-4.707 1.675-6.791 2.275-4.947 1.497-9.197 2.1-14.998 2.1-6.911 0-11.5-.569-16.56-2.1-2.536-.73-5.19-1.691-8.315-2.929C66.547 73.278 61.168 72 50.5 72c-10.732 0-17.024 1.397-26.927 5.063l-1.784.661c-2.5.923-4.707 1.675-6.791 2.275C10.051 81.497 5.801 82.1 0 82.1v2.1c8.158 0 13.39-1.164 21.396-4.2.361-.13.727-.264 1.099-.402l1.785-.662C33.976 75.348 40.043 74 50.5 74c10.374 0 15.516 1.222 24.875 4.929.965.382 1.888.739 2.778 1.071 7.938 3.115 13.254 4.2 22.847 4.2 8.157 0 13.39-1.164 21.396-4.2.361-.13.727-.264 1.099-.402l1.785-.662C134.976 75.348 141.043 74 151.5 74c10.374 0 15.515 1.222 24.875 4.929.965.382 1.888.739 2.778 1.071 7.938 3.115 13.254 4.2 22.847 4.2 8.077 0 13.258-1.164 21.184-4.2.357-.13.72-.264 1.088-.402l1.768-.662C235.64 75.348 241.647 74 252 74c10.271 0 15.361 1.222 24.629 4.929.955.382 1.869.739 2.75 1.071 7.86 3.115 13.123 4.2 22.621 4.2 8.157 0 13.391-1.164 21.396-4.2.36-.13.727-.264 1.099-.402l1.784-.662C335.977 75.348 342.043 74 352.5 74c10.374 0 15.516 1.222 24.875 4.929.965.382 1.889.739 2.777 1.071 7.938 3.115 13.255 4.2 22.848 4.2 8.157 0 13.391-1.164 21.396-4.2.36-.13.727-.264 1.099-.402l1.785-.662C436.976 75.348 443.043 74 453.5 74c10.374 0 15.515 1.222 24.875 4.929.965.382 1.888.739 2.778 1.071 7.938 3.115 13.254 4.2 22.847 4.2v-2.1c-6.911 0-11.499-.569-16.56-2.1-2.536-.73-5.19-1.691-8.315-2.929zm0-20C469.547 53.278 464.168 52 453.5 52c-10.732 0-17.024 1.397-26.927 5.063l-1.784.661c-2.5.923-4.707 1.675-6.791 2.275-4.947 1.426-9.197 2-14.998 2-6.911 0-11.499-.542-16.561-2-2.535-.73-5.189-1.691-8.314-2.929C368.547 53.278 363.168 52 352.5 52c-10.732 0-17.023 1.397-26.927 5.063-.173.063-1.421.526-1.784.661-2.5.923-4.707 1.675-6.791 2.275-4.947 1.426-9.197 2-14.998 2-6.842 0-11.386-.542-16.396-2-2.511-.73-5.139-1.691-8.232-2.929C267.889 53.278 262.563 52 252 52c-10.626 0-16.855 1.397-26.66 5.063l-1.767.661c-2.475.923-4.66 1.675-6.724 2.275-4.898 1.426-9.105 2-14.849 2-6.911 0-11.499-.542-16.56-2-2.536-.73-5.19-1.691-8.315-2.929C167.547 53.278 162.168 52 151.5 52c-10.732 0-17.024 1.397-26.927 5.063l-1.784.661c-2.5.923-4.707 1.675-6.791 2.275-4.947 1.426-9.197 2-14.998 2-6.911 0-11.5-.542-16.56-2-2.536-.73-5.19-1.691-8.315-2.929C66.547 53.278 61.168 52 50.5 52c-10.732 0-17.024 1.397-26.927 5.063l-1.784.661c-2.5.923-4.707 1.675-6.791 2.275C10.051 61.426 5.801 62 0 62v2c8.158 0 13.39-1.108 21.396-4 .361-.13.727-.264 1.099-.402l1.785-.662C33.976 55.348 40.043 54 50.5 54c10.374 0 15.516 1.222 24.875 4.929.965.382 1.888.739 2.778 1.071 7.938 2.966 13.254 4 22.847 4 8.157 0 13.39-1.108 21.396-4 .361-.13.727-.264 1.099-.402l1.785-.662C134.976 55.348 141.043 54 151.5 54c10.374 0 15.515 1.222 24.875 4.929.965.382 1.888.739 2.778 1.071 7.938 2.966 13.254 4 22.847 4 8.077 0 13.258-1.108 21.184-4 .357-.13.72-.264 1.088-.402l1.768-.662C235.64 55.348 241.647 54 252 54c10.271 0 15.361 1.222 24.629 4.929.955.382 1.869.739 2.75 1.071 7.86 2.966 13.123 4 22.621 4 8.157 0 13.391-1.108 21.396-4 .36-.13.727-.264 1.099-.402l1.784-.662C335.977 55.348 342.043 54 352.5 54c10.374 0 15.516 1.222 24.875 4.929.965.382 1.889.739 2.777 1.071 7.938 2.966 13.255 4 22.848 4 8.157 0 13.391-1.108 21.396-4 .36-.13.727-.264 1.099-.402l1.785-.662C436.976 55.348 443.043 54 453.5 54c10.374 0 15.515 1.222 24.875 4.929.965.382 1.888.739 2.778 1.071 7.938 2.966 13.254 4 22.847 4v-2c-6.911 0-11.499-.542-16.56-2-2.536-.73-5.19-1.691-8.315-2.929z"/><path d="M453.5 42c-10.732 0-17.024 1.397-26.927 5.063l-1.784.661C416.355 50.84 411.245 52 403 52c-10.374 0-15.516-1.222-24.875-4.929C368.547 43.278 363.168 42 352.5 42c-10.732 0-17.023 1.397-26.927 5.063-.173.063-1.421.526-1.784.661C315.355 50.84 310.245 52 302 52c-10.271 0-15.361-1.222-24.629-4.929C267.889 43.278 262.563 42 252 42c-10.626 0-16.855 1.397-26.66 5.063l-1.767.661C215.224 50.84 210.164 52 202 52c-10.374 0-15.515-1.222-24.875-4.929C167.547 43.278 162.168 42 151.5 42c-10.732 0-17.024 1.397-26.927 5.063l-1.784.661C114.356 50.84 109.245 52 101 52c-10.374 0-15.516-1.222-24.875-4.929C66.547 43.278 61.168 42 50.5 42c-10.732 0-17.024 1.397-26.927 5.063l-1.784.661C13.356 50.84 8.245 52 0 52v2c8.525 0 13.855-1.21 22.495-4.402l1.785-.662C33.976 45.348 40.043 44 50.5 44c10.374 0 15.516 1.222 24.875 4.929C84.953 52.722 90.332 54 101 54c8.525 0 13.856-1.21 22.495-4.402l1.785-.662C134.976 45.348 141.043 44 151.5 44c10.374 0 15.515 1.222 24.875 4.929C185.953 52.722 191.332 54 202 54c8.441 0 13.718-1.21 22.272-4.402l1.768-.662C235.64 45.348 241.647 44 252 44c10.271 0 15.361 1.222 24.629 4.929C286.111 52.722 291.438 54 302 54c8.525 0 13.855-1.21 22.495-4.402l1.784-.662C335.977 45.348 342.043 44 352.5 44c10.374 0 15.516 1.222 24.875 4.929C386.953 52.722 392.332 54 403 54c8.525 0 13.855-1.21 22.495-4.402l1.785-.662C436.976 45.348 443.043 44 453.5 44c10.374 0 15.515 1.222 24.875 4.929C487.953 52.722 493.332 54 504 54v-2c-10.374 0-15.515-1.222-24.875-4.929C469.547 43.278 464.168 42 453.5 42z"/><path d="M479.125 37.071C469.547 33.278 464.168 32 453.5 32c-10.732 0-17.024 1.397-26.927 5.063l-1.784.661c-2.5.923-4.707 1.675-6.791 2.275-4.947 1.426-9.197 2-14.998 2-6.911 0-11.499-.542-16.561-2-2.535-.73-5.189-1.691-8.314-2.929C368.547 33.278 363.168 32 352.5 32c-10.732 0-17.023 1.397-26.927 5.063-.173.063-1.421.526-1.784.661-2.5.923-4.707 1.675-6.791 2.275-4.947 1.426-9.197 2-14.998 2-6.842 0-11.386-.542-16.396-2-2.511-.73-5.139-1.691-8.232-2.929C267.889 33.278 262.563 32 252 32c-10.626 0-16.855 1.397-26.66 5.063l-1.767.661c-2.475.923-4.66 1.675-6.724 2.275-4.898 1.426-9.105 2-14.849 2-6.911 0-11.499-.542-16.56-2-2.536-.73-5.19-1.691-8.315-2.929C167.547 33.278 162.168 32 151.5 32c-10.732 0-17.024 1.397-26.927 5.063l-1.784.661c-2.5.923-4.707 1.675-6.791 2.275-4.947 1.426-9.197 2-14.998 2-6.911 0-11.5-.542-16.56-2-2.536-.73-5.19-1.691-8.315-2.929C66.547 33.278 61.168 32 50.5 32c-10.732 0-17.024 1.397-26.927 5.063l-1.784.661c-2.5.923-4.707 1.675-6.791 2.275C10.051 41.426 5.801 42 0 42v2c8.158 0 13.39-1.108 21.396-4 .361-.13.727-.264 1.099-.402l1.785-.662C33.976 35.348 40.043 34 50.5 34c10.374 0 15.516 1.222 24.875 4.929.965.382 1.888.739 2.778 1.071 7.938 2.966 13.254 4 22.847 4 8.157 0 13.39-1.108 21.396-4 .361-.13.727-.264 1.099-.402l1.785-.662C134.976 35.348 141.043 34 151.5 34c10.374 0 15.515 1.222 24.875 4.929.965.382 1.888.739 2.778 1.071 7.938 2.966 13.254 4 22.847 4 8.077 0 13.258-1.108 21.184-4 .357-.13.72-.264 1.088-.402l1.768-.662C235.64 35.348 241.647 34 252 34c10.271 0 15.361 1.222 24.629 4.929.955.382 1.869.739 2.75 1.071 7.86 2.966 13.123 4 22.621 4 8.157 0 13.391-1.108 21.396-4 .36-.13.727-.264 1.099-.402l1.784-.662C335.977 35.348 342.043 34 352.5 34c10.374 0 15.516 1.222 24.875 4.929.965.382 1.889.739 2.777 1.071 7.938 2.966 13.255 4 22.848 4 8.157 0 13.391-1.108 21.396-4 .36-.13.727-.264 1.099-.402l1.785-.662C436.976 35.348 443.043 34 453.5 34c10.374 0 15.515 1.222 24.875 4.929.965.382 1.888.739 2.778 1.071 7.938 2.966 13.254 4 22.847 4v-2c-6.911 0-11.499-.542-16.56-2-2.536-.73-5.19-1.691-8.315-2.929z"/><path d="M453.5 22c-10.732 0-17.024 1.397-26.927 5.063l-1.784.661C416.355 30.84 411.245 32 403 32c-10.374 0-15.516-1.222-24.875-4.929C368.547 23.278 363.168 22 352.5 22c-10.732 0-17.023 1.397-26.927 5.063-.173.063-1.421.526-1.784.661C315.355 30.84 310.245 32 302 32c-10.271 0-15.361-1.222-24.629-4.929C267.889 23.278 262.563 22 252 22c-10.626 0-16.855 1.397-26.66 5.063l-1.767.661C215.224 30.84 210.164 32 202 32c-10.374 0-15.515-1.222-24.875-4.929C167.547 23.278 162.168 22 151.5 22c-10.732 0-17.024 1.397-26.927 5.063l-1.784.661C114.356 30.84 109.245 32 101 32c-10.374 0-15.516-1.222-24.875-4.929C66.547 23.278 61.168 22 50.5 22c-10.732 0-17.024 1.397-26.927 5.063l-1.784.661C13.356 30.84 8.245 32 0 32v2c8.525 0 13.855-1.21 22.495-4.402l1.785-.662C33.976 25.348 40.043 24 50.5 24c10.374 0 15.516 1.222 24.875 4.929C84.953 32.722 90.332 34 101 34c8.525 0 13.856-1.21 22.495-4.402l1.785-.662C134.976 25.348 141.043 24 151.5 24c10.374 0 15.515 1.222 24.875 4.929C185.953 32.722 191.332 34 202 34c8.441 0 13.718-1.21 22.272-4.402l1.768-.662C235.64 25.348 241.647 24 252 24c10.271 0 15.361 1.222 24.629 4.929C286.111 32.722 291.438 34 302 34c8.525 0 13.855-1.21 22.495-4.402l1.784-.662C335.977 25.348 342.043 24 352.5 24c10.374 0 15.516 1.222 24.875 4.929C386.953 32.722 392.332 34 403 34c8.525 0 13.855-1.21 22.495-4.402l1.785-.662C436.976 25.348 443.043 24 453.5 24c10.374 0 15.515 1.222 24.875 4.929C487.953 32.722 493.332 34 504 34v-2c-10.374 0-15.515-1.222-24.875-4.929C469.547 23.278 464.168 22 453.5 22zM323.396 0h-6.398c-4.947 1.426-9.197 2-14.998 2-6.842 0-11.386-.542-16.396-2h-6.225c7.86 2.966 13.123 4 22.621 4 8.157 0 13.391-1.108 21.396-4z"/><path d="M479.125 17.071C469.547 13.278 464.168 12 453.5 12c-10.732 0-17.024 1.397-26.927 5.063l-1.784.661c-2.5.923-4.707 1.675-6.791 2.275-4.947 1.426-9.197 2-14.998 2-6.911 0-11.499-.542-16.561-2-2.535-.73-5.189-1.691-8.314-2.929C368.547 13.278 363.168 12 352.5 12c-10.732 0-17.023 1.397-26.927 5.063-.173.063-1.421.526-1.784.661-2.5.923-4.707 1.675-6.791 2.275-4.947 1.426-9.197 2-14.998 2-6.842 0-11.386-.542-16.396-2-2.511-.73-5.139-1.691-8.232-2.929C267.889 13.278 262.563 12 252 12c-10.626 0-16.855 1.397-26.66 5.063l-1.767.661c-2.475.923-4.66 1.675-6.724 2.275-4.898 1.426-9.105 2-14.849 2-6.911 0-11.499-.542-16.56-2-2.536-.73-5.19-1.691-8.315-2.929C167.547 13.278 162.168 12 151.5 12c-10.732 0-17.024 1.397-26.927 5.063l-1.784.661c-2.5.923-4.707 1.675-6.791 2.275-4.947 1.426-9.197 2-14.998 2-6.911 0-11.5-.542-16.56-2-2.536-.73-5.19-1.691-8.315-2.929C66.547 13.278 61.168 12 50.5 12c-10.732 0-17.024 1.397-26.927 5.063l-1.784.661c-2.5.923-4.707 1.675-6.791 2.275C10.051 21.426 5.801 22 0 22v2c8.158 0 13.39-1.108 21.396-4 .361-.13.727-.264 1.099-.402l1.785-.662C33.976 15.348 40.043 14 50.5 14c10.374 0 15.516 1.222 24.875 4.929.965.382 1.888.739 2.778 1.071 7.938 2.966 13.254 4 22.847 4 8.157 0 13.39-1.108 21.396-4 .361-.13.727-.264 1.099-.402l1.785-.662C134.976 15.348 141.043 14 151.5 14c10.374 0 15.515 1.222 24.875 4.929.965.382 1.888.739 2.778 1.071 7.938 2.966 13.254 4 22.847 4 8.077 0 13.258-1.108 21.184-4 .357-.13.72-.264 1.088-.402l1.768-.662C235.64 15.348 241.647 14 252 14c10.271 0 15.361 1.222 24.629 4.929.955.382 1.869.739 2.75 1.071 7.86 2.966 13.123 4 22.621 4 8.157 0 13.391-1.108 21.396-4 .36-.13.727-.264 1.099-.402l1.784-.662C335.977 15.348 342.043 14 352.5 14c10.374 0 15.516 1.222 24.875 4.929.965.382 1.889.739 2.777 1.071 7.938 2.966 13.255 4 22.848 4 8.157 0 13.391-1.108 21.396-4 .36-.13.727-.264 1.099-.402l1.785-.662C436.976 15.348 443.043 14 453.5 14c10.374 0 15.515 1.222 24.875 4.929.965.382 1.888.739 2.778 1.071 7.938 2.966 13.254 4 22.847 4v-2c-6.911 0-11.499-.542-16.56-2-2.536-.73-5.19-1.691-8.315-2.929zM487.44 0h-6.287c7.938 2.966 13.254 4 22.847 4V2c-6.911 0-11.499-.542-16.56-2zm-63.044 0h-6.398c-4.947 1.426-9.197 2-14.998 2-6.911 0-11.499-.542-16.561-2h-6.287C388.09 2.966 393.407 4 403 4c8.157 0 13.391-1.108 21.396-4z"/><path d="M453.5 2c-10.732 0-17.024 1.397-26.927 5.063l-1.784.661C416.355 10.84 411.245 12 403 12c-10.374 0-15.516-1.222-24.875-4.929C368.547 3.278 363.168 2 352.5 2c-10.732 0-17.023 1.397-26.927 5.063-.173.063-1.421.526-1.784.661C315.355 10.84 310.245 12 302 12c-10.271 0-15.361-1.222-24.629-4.929C267.889 3.278 262.563 2 252 2c-10.626 0-16.855 1.397-26.66 5.063l-1.767.661C215.224 10.84 210.164 12 202 12c-10.374 0-15.515-1.222-24.875-4.929C167.547 3.278 162.168 2 151.5 2c-10.732 0-17.024 1.397-26.927 5.063l-1.784.661C114.356 10.84 109.245 12 101 12c-10.374 0-15.516-1.222-24.875-4.929C66.547 3.278 61.168 2 50.5 2 39.768 2 33.476 3.397 23.573 7.063l-1.784.662C13.356 10.84 8.245 12 0 12v2c8.525 0 13.855-1.21 22.495-4.402l1.785-.661C33.976 5.348 40.043 4 50.5 4c10.374 0 15.516 1.222 24.875 4.929C84.953 12.722 90.332 14 101 14c8.525 0 13.856-1.21 22.495-4.402l1.785-.662C134.976 5.348 141.043 4 151.5 4c10.374 0 15.515 1.222 24.875 4.929C185.953 12.722 191.332 14 202 14c8.441 0 13.718-1.21 22.272-4.402l1.768-.662C235.64 5.348 241.647 4 252 4c10.271 0 15.361 1.222 24.629 4.929C286.111 12.722 291.438 14 302 14c8.525 0 13.855-1.21 22.495-4.402l1.784-.662C335.977 5.348 342.043 4 352.5 4c10.374 0 15.516 1.222 24.875 4.929C386.953 12.722 392.332 14 403 14c8.525 0 13.855-1.21 22.495-4.402l1.785-.662C436.976 5.348 443.043 4 453.5 4c10.374 0 15.515 1.222 24.875 4.929C487.953 12.722 493.332 14 504 14v-2c-10.374 0-15.515-1.222-24.875-4.929C469.547 3.278 464.168 2 453.5 2z"/></g></svg>