<svg width="613" height="578" viewBox="0 0 613 578" fill="none" xmlns="http://www.w3.org/2000/svg">
<g clip-path="url(#clip0_10_3)">
<path d="M52.276 352.462L54.636 352.532L54.926 349.642L58.526 349.242L59.336 346.292L65.286 342.702L74.246 348.072L74.906 342.112L77.136 342.172L76.476 339.092L78.156 336.302L83.476 337.912L83.806 336.572L90.176 342.192L90.596 344.462L97.436 337.492L97.696 333.992L104.106 332.022L106.176 323.702L103.946 322.592L106.906 320.462L107.036 317.472L113.746 315.162L112.986 312.852L115.466 312.122L112.936 310.922L114.156 309.372L116.826 309.452L117.186 311.582L123.056 313.802L125.746 313.262L124.786 318.502L128.106 318.292L131.596 323.302L137.446 317.872L138.066 313.932L140.626 311.302L148.356 311.382L153.216 314.702L155.416 318.922L153.926 323.592L161.756 324.842L163.656 329.402L173.756 334.782L179.676 334.732L179.946 332.702L182.586 331.832L188.496 332.622L189.176 326.542L194.196 324.902L204.606 326.872L209.956 331.012V331.812L211.396 335.482L207.266 338.702L209.446 348.612L221.386 347.572L219.596 354.312L221.816 355.512L221.616 363.952L224.866 369.222L216.866 372.232L213.106 369.462L212.506 371.552L209.316 372.932L211.466 379.872L207.716 382.062L207.436 386.632L209.046 388.712L205.956 388.992L207.296 390.632L202.276 391.022L202.056 396.552L198.466 395.072L197.496 397.492L200.236 398.582L199.436 401.222L196.036 402.362L197.196 408.592L193.376 407.612L191.506 409.852L193.826 412.372L189.566 415.412L191.776 417.682L190.376 418.532L190.966 424.472L183.346 425.622L179.856 431.842L179.076 439.072L173.016 437.572L172.736 437.762L170.556 440.962L167.416 444.782L170.506 446.532L172.816 453.582L176.226 454.832L177.736 461.772L175.966 463.002L174.596 460.292L173.286 462.422L169.876 462.352L168.876 464.572L166.586 463.902L162.836 469.752L157.126 474.152L150.496 469.952L149.046 462.542L141.556 453.052L138.336 452.302L136.986 447.492L133.546 447.162L132.006 448.672L126.906 442.452L134.016 435.322L136.936 435.812L139.376 433.252L139.606 429.372L142.036 428.402L135.816 420.402L129.206 419.522L128.236 423.072L126.316 423.722L121.166 420.322L116.406 426.502L114.096 425.092L116.246 423.492L114.316 418.292L106.446 419.232L103.646 411.472L96.956 413.222L90.776 409.442L85.876 409.322L80.656 406.402L76.706 409.352L76.286 403.722L70.806 398.512L70.636 389.892L68.446 387.992L64.346 389.212L64.206 385.952L61.786 388.842L57.626 385.672L52.986 386.822L51.956 388.802L55.226 391.052L53.246 395.322L53.996 400.732L43.116 400.332L51.676 382.882L56.276 364.082L55.976 359.382L52.276 352.462Z" fill="url(#paint0_linear_10_3)"/>
<path d="M199.876 140.082L201.706 130.512L207.166 126.462L208.016 130.102L211.046 130.782L213.096 128.912L216.996 131.552L216.076 128.612L219.996 128.422L218.986 125.442L221.316 119.472L225.786 119.912L230.286 117.352L228.336 112.202L233.636 112.722L237.216 116.122L241.456 110.042L243.806 112.532L246.236 111.682L247.316 114.102L249.246 112.832V113.922L253.416 114.062L253.166 118.432L265.136 119.962L265.856 118.302L268.596 118.112L268.346 120.572L270.746 123.182L272.656 122.742L272.156 120.882L275.336 121.272L276.886 119.052L281.606 120.202L283.936 118.582L282.116 124.412L283.956 128.252L292.316 129.342L292.146 131.162L297.626 129.242L306.846 130.442L310.266 131.972L310.546 137.772L314.736 148.652L316.636 150.022L317.466 147.922L321.766 147.532L325.606 150.792L325.446 152.612L329.376 151.842L330.806 155.552L339.936 154.782L342.636 162.442L339.866 163.822L340.156 166.232L343.316 166.972L343.406 169.372H343.086L344.566 174.582L340.346 177.702L339.896 177.552L338.786 179.242L336.896 178.702L337.966 186.162L340.236 187.862L338.626 191.282L339.636 194.472L331.986 190.992L333.336 194.032L330.366 196.462L325.246 195.472L329.376 204.012L326.886 203.802L323.976 208.652L328.866 213.312L328.406 215.332L330.016 215.262L328.536 217.022L330.146 219.692L324.996 217.902L325.576 222.992L323.406 223.162L320.546 227.762L323.756 230.302L320.276 233.472L319.466 233.482L319.426 237.652L317.726 237.412L322.136 239.162L317.436 245.512L314.286 245.532L315.796 247.252L316.146 247.822L315.786 250.512L310.906 253.742L311.536 255.982L310.306 254.282L300.916 256.952L296.206 254.612L296.586 252.702L293.316 250.242L292.736 253.602L283.096 256.922L280.726 250.502L278.536 250.282L278.756 247.442L277.146 248.072L276.646 245.242L273.216 243.492L271.226 244.042L268.956 240.452L266.936 239.902L265.326 242.702L260.706 243.322L259.466 236.062L252.946 242.172L249.496 241.982L249.006 239.802L242.676 238.332L242.866 234.972L236.296 235.912L236.776 232.442L235.456 233.532L233.486 230.582L232.296 231.592L229.446 225.972L227.146 226.522L224.366 224.362L222.986 226.682L222.576 224.382L217.416 230.002L217.586 225.242L214.446 224.812L214.536 219.182L211.306 219.612L207.906 222.862L204.726 222.002L205.686 217.282L200.636 214.482L200.966 211.562L206.746 211.242L207.646 197.182L200.166 191.612L195.356 192.522L194.456 190.342L195.936 188.182L196.236 188.122L195.796 182.202L198.146 180.762L197.496 176.802L199.886 175.602L196.666 174.292L197.306 169.602L195.666 168.122L201.176 166.862L202.656 162.772L196.616 154.702L193.126 153.532L192.226 154.972L191.036 151.512L199.876 140.082Z" fill="url(#paint1_linear_10_3)"/>
<path d="M315.786 250.512L319.726 255.232L326.376 254.412L329.246 255.932L329.016 257.742L336.326 260.662L338.876 264.132L341.426 262.142L344.286 263.462L347.976 261.412L350.746 261.882L353.306 258.712L357.436 261.322L358.006 263.842L361.186 262.622L364.446 265.932L363.956 270.752L366.216 274.592L369.816 274.742L371.446 277.552L376.056 278.902L375.296 283.612L371.866 286.342L375.206 288.062L376.466 290.902L376.766 292.592L373.846 295.452L378.116 295.372L378.586 297.792L385.396 294.912L388.916 297.242L390.006 300.162L393.706 300.352L396.926 307.662L393.116 307.992L394.566 308.692L394.686 314.842L399.286 317.072L399.296 319.892L396.986 323.772L390.806 322.452L387.576 319.592L382.956 323.372L385.566 331.872L387.706 333.442L386.636 338.662L391.636 337.772L392.166 339.952L389.706 346.002L385.696 350.172L385.276 353.712L384.416 356.722L381.796 357.692L383.086 361.682L381.716 364.872L379.336 362.862L377.616 364.492L374.936 362.742L373.846 363.082L375.216 367.082L373.776 368.072L370.076 367.722L368.486 369.442L362.366 367.002L359.496 368.242L360.806 371.302L358.286 373.622L358.386 379.712L363.056 381.172L361.266 390.402L357.066 388.232L351.816 382.092L348.916 389.162L349.796 393.502V394.472L348.946 395.872L348.856 395.862L347.826 396.942L347.356 397.292L346.316 397.412L346.396 397.652L343.956 401.012L339.386 402.102L339.016 399.102L334.156 396.592L328.576 398.572L327.476 393.352L323.416 387.432L322.126 386.592L319.726 388.502L317.296 385.532L317.816 383.312L313.926 384.592L314.336 387.322L311.646 388.962L308.016 386.022L306.286 386.792L304.226 383.552L302.206 384.132L295.036 377.962L293.056 378.292L290.876 382.012L289.316 380.442L277.656 382.522L272.656 379.672L270.506 374.212L268.766 374.442L266.926 378.972L265.436 376.192L255.696 374.762L246.806 370.832L248.276 361.402L243.996 361.972L242.136 353.222L244.896 352.712L245.976 349.932L249.406 349.552L250.176 346.632L248.736 344.662L251.536 343.872L256.946 347.032L260.296 341.522L258.836 335.842L260.086 329.822L258.326 329.142L260.356 324.192L258.646 323.452L262.176 318.952L261.746 314.952L263.376 313.282L262.216 310.742L264.106 309.452L263.816 307.302L265.726 307.762L265.916 304.702L267.756 304.092L268.516 306.322L273.346 305.152L279.046 307.292L279.606 303.312L285.286 296.602L281.226 292.852L280.406 283.282L282.326 282.102L287.516 283.872L288.386 281.172L293.656 281.042L294.666 277.152L292.496 275.152L293.706 269.432L297.666 267.852L303.506 269.482L302.446 267.362L304.476 265.992L304.186 263.552L299.926 263.002L300.916 256.952L310.306 254.282L311.536 255.982L310.906 253.742L315.786 250.512Z" fill="url(#paint2_linear_10_3)"/>
<path d="M550.366 261.672L553.226 261.842L554.686 262.632L554.786 267.532L566.316 270.082L568.146 272.862L572.816 272.192L571.986 274.842L575.706 279.042L578.756 278.352L582.026 282.012L581.426 284.232L584.236 290.822L580.456 295.032L581.606 296.602L579.586 298.212L581.176 300.602L580.696 302.612L579.236 302.192L578.956 305.712L581.296 309.682L574.466 316.682L576.356 319.672L575.066 325.032L576.756 335.762L579.446 336.332L580.136 339.432L582.756 340.212L581.956 344.412L585.186 347.012L584.106 351.972L581.216 355.442L581.766 359.452H584.886L587.486 367.032L595.476 373.152L594.706 378.112L597.876 380.612L599.426 386.342L598.106 386.752L600.756 388.722L601.606 392.482L606.666 398.212L612.336 400.452L609.896 403.252L603.636 403.092L601.106 405.712L601.476 409.462L604.846 410.382L604.496 414.422L607.806 414.762L607.296 418.732L609.316 422.842L608.956 429.962L605.446 441.142L603.216 444.392L586.726 446.642L584.116 452.062L575.396 459.922L573.256 458.732L573.886 455.462L567.016 454.652L568.716 450.382H568.276L565.316 448.372L565.866 444.862L564.126 444.322L557.556 449.372L553.366 445.762L543.386 456.142L518.356 454.152L518.386 452.282L523.086 449.682L512.086 450.802L507.936 445.482L505.706 445.862L506.346 443.262L509.236 442.152L508.406 439.562L514.486 440.392L517.086 437.932L513.236 437.472L516.276 436.442L515.896 435.052L513.076 435.172L513.606 428.552L510.236 427.092L507.296 428.072L503.056 424.352L497.556 423.872L494.596 419.692L490.336 419.502L494.476 410.922L492.196 406.752L485.786 404.862L482.476 408.252L475.776 409.352L473.176 406.152L471.586 403.222L469.426 381.292L468.586 375.772L470.206 372.672L468.326 368.772L471.476 359.612L468.666 359.272L470.466 358.452L472.176 353.362L470.966 350.762L469.386 351.332L466.546 348.872L469.146 346.262L471.386 347.272L473.416 341.642L470.136 332.862L463.616 332.982L457.786 327.632L459.676 323.542L465.916 328.242L466.606 325.402L471.766 324.852L471.746 322.232L475.436 320.042L475.736 317.962L472.036 314.322L478.886 309.722L476.926 305.692L472.966 306.852L472.146 304.942L475.776 300.882L473.826 295.642L474.646 291.692L483.806 286.362L489.126 288.472L490.656 285.992L497.546 287.662L500.376 284.862L502.416 288.252L507.006 287.552L511.636 282.702L519.246 288.482L522.086 283.822L520.806 281.112L524.256 277.812L530.186 282.242L532.566 280.932L536.626 282.572L537.066 278.472L540.466 278.442L538.896 275.512L541.926 272.102L547.326 272.482L544.686 268.222L550.366 261.672Z" fill="url(#paint3_linear_10_3)"/>
<path d="M29.506 229.602L29.436 226.012L31.526 224.242L36.236 226.802L38.506 225.372L41.756 213.842L45.736 210.642L44.946 207.632L48.836 206.422L46.786 204.512L48.816 201.762L54.096 206.132L56.656 204.332L58.866 206.862L73.816 200.482L71.656 194.002L76.206 195.012L79.536 191.222L87.716 188.402L93.416 191.582L96.046 189.362L98.456 190.582L100.746 189.302L99.766 187.222L103.016 185.912L101.336 183.762L103.846 183.252L103.316 181.292L106.406 179.922L105.986 177.562L114.106 179.502L112.606 185.842L112.006 190.002V190.342L112.476 193.422L112.646 193.542L113.436 204.282L109.166 206.342L108.346 208.812L110.946 209.942L111.586 217.132L102.916 219.152L104.076 222.552L101.826 229.302L106.096 235.442L104.666 237.922L107.876 241.122L108.906 245.472L105.806 247.462L104.416 244.752L103.636 246.502L109.186 251.282L106.226 264.122L107.756 275.662L105.906 279.072L110.176 283.552L111.456 281.842L113.706 282.882L114.236 285.152L112.406 287.712L116.056 292.552L122.466 290.702L123.346 297.382L121.136 300.502L124.816 300.702L127.206 302.862L129.956 299.352L132.956 300.152L138.416 304.752L140.626 311.302L138.066 313.932L137.446 317.872L131.596 323.302L128.106 318.292L124.786 318.502L125.746 313.262L123.056 313.802L117.186 311.582L116.826 309.452L114.156 309.372L112.936 310.922L115.466 312.122L112.986 312.852L113.746 315.162L107.036 317.472L106.906 320.462L103.946 322.592L106.176 323.702L104.106 332.022L97.696 333.992L97.436 337.492L90.596 344.462L90.176 342.192L83.806 336.572L83.476 337.912L78.156 336.302L76.476 339.092L77.136 342.172L74.906 342.112L74.246 348.072L65.286 342.702L59.336 346.292L58.526 349.242L54.926 349.642L54.636 352.532L52.276 352.462L50.916 342.132L37.396 336.162L36.276 333.092L39.536 328.692L39.076 323.512L33.686 317.062L32.286 310.202L28.936 307.682L30.096 304.292L35.256 299.742L36.436 289.732L39.166 283.632L34.446 278.482L36.406 266.542L28.996 262.812L25.446 250.752L26.356 246.922L31.616 240.782L29.706 236.902L31.786 233.052L29.506 229.602Z" fill="url(#paint4_linear_10_3)"/>
<path d="M356.066 435.482L358.386 434.092L375.766 438.882L375.796 442.272L379.876 448.752L377.196 449.942L377.376 452.492L381.606 455.562L380.036 457.582L383.486 460.852L382.116 463.412L384.316 463.672L384.596 465.332L400.496 463.452L407.326 456.062L410.146 457.602L413.676 454.442L423.726 453.422L428.376 449.782L430.946 452.132L432.926 449.762L433.526 453.622L429.076 458.832L430.956 463.212L429.476 469.742L431.436 470.292L429.666 470.702L432.216 471.372L432.806 474.112L430.806 474.582L432.036 476.112L429.726 477.832L432.236 480.472L429.646 484.652L431.596 490.042L437.356 490.472L438.346 492.492L437.546 494.052L434.486 493.882L434.316 497.022L428.696 498.202L430.556 500.542L429.796 504.152L435.246 504.292L436.356 506.242L439.366 506.662L441.856 511.952L442.586 516.912L439.986 522.152L442.926 524.022L442.076 526.392L445.786 531.102L443.956 531.972L444.406 536.872L437.006 534.332L432.986 539.792L427.866 536.722L423.446 538.062L426.596 542.312L422.806 543.312L419.676 548.552L415.956 549.562L414.376 546.822L412.546 547.462L411.956 544.922L410.286 546.172L407.886 545.272L408.636 543.942L405.566 542.742L404.386 538.482L398.756 539.892L396.836 538.292L394.296 542.192L387.926 538.532L385.466 538.382L385.556 540.302L384.656 539.322L383.096 540.832L381.966 539.242L379.656 539.632L378.436 545.192L372.736 544.462L369.026 548.912L368.226 547.862L364.326 560.552L355.836 555.382L353.266 555.802L351.446 558.912L346.316 558.702L345.006 555.342L348.436 551.372L346.756 549.282L346.476 539.102L342.026 541.262L336.676 539.222L337.336 534.622L333.816 534.852L330.476 523.892L327.296 522.272L326.776 520.112L327.606 514.822L321.646 512.392L326.256 508.052L325.586 504.832L318.316 503.662L316.336 495.942L308.946 496.552L311.156 488.762L310.026 487.792L307.796 489.212H307.146L306.066 489.252H305.316L303.166 488.172L305.056 486.972L304.826 483.662L308.296 477.822L312.176 477.192L310.986 476.322L313.316 471.042H313.646L313.926 472.932L314.986 470.132L319.096 469.552L320.626 467.382L319.306 465.772L323.736 464.072L324.416 461.942L318.216 458.842L317.146 455.802L320.556 453.122L328.156 452.732L328.596 449.732L326.126 447.862L326.446 447.762L328.956 448.342L328.456 445.722L330.536 443.742L334.396 444.832L338.376 444.102L341.516 441.212L350.076 441.742L352.916 440.352L352.996 438.462L357.386 438.322L356.066 435.482Z" fill="url(#paint5_linear_10_3)"/>
<path d="M344.566 174.582L349.736 175.362L349.076 171.372L354.186 168.352L354.466 168.902L353.916 172.352L358.086 175.122L365.326 173.162L367.746 175.392L369.936 174.322L378.456 176.102L382.796 173.532L382.136 168.842L386.976 165.092L392.916 167.212L399.236 164.532L402.996 158.312L411.066 160.332L412.386 157.282L415.566 157.512L414.576 154.722L416.196 153.422L420.006 153.072L423.436 155.992L436.916 146.112L442.256 147.152L447.386 145.032L447.686 142.652L456.676 141.102L457.016 142.602H456.556L459.156 146.592L458.336 148.442L461.856 152.662L459.966 156.302L462.346 155.922L465.056 158.322L460.896 158.252L460.936 157.842L459.366 161.032L460.326 163.392L458.266 163.022L462.136 168.202L461.006 168.902L463.216 173.332L462.626 176.122L464.936 178.902L469.446 178.352L473.076 183.822L477.516 182.752L476.426 184.342L477.506 186.052L474.936 185.342L473.856 188.962L481.096 193.692H480.576L482.866 195.972L480.746 198.112L483.516 204.482L494.226 203.692L494.486 200.832L497.516 200.962L498.016 204.572L499.916 204.162L499.056 206.002L496.206 206.062L498.426 211.962L500.636 211.752L501.456 213.932L504.736 211.772L504.606 210.152L508.906 210.962L509.466 224.472L505.176 228.962L509.106 231.702L513.326 238.082L512.386 242.052L514.926 243.872L514.246 247.942L516.526 250.952L524.246 251.032L525.636 253.732L527.036 251.852L532.986 254.392L539.186 253.212L541.966 256.992L545.036 257.662L545.556 261.652L549.096 260.022L550.366 261.672L544.686 268.222L547.326 272.482L541.926 272.102L538.896 275.512L540.466 278.442L537.066 278.472L536.626 282.572L532.566 280.932L530.186 282.242L524.256 277.812L520.806 281.112L522.086 283.822L519.246 288.482L511.636 282.702L507.006 287.552L502.416 288.252L500.376 284.862L497.546 287.662L490.656 285.992L489.126 288.472L483.806 286.362L474.646 291.692L473.826 295.642L475.776 300.882L472.146 304.942L472.966 306.852L476.926 305.692L478.886 309.722L472.036 314.322L475.736 317.962L475.436 320.042L471.746 322.232L471.766 324.852L466.606 325.402L465.916 328.242L459.676 323.542L457.786 327.632L463.616 332.982L470.136 332.862L473.416 341.642L471.386 347.272L469.146 346.262L466.546 348.872L469.386 351.332L470.966 350.762L472.176 353.362L470.466 358.452L468.666 359.272L471.476 359.612L468.326 368.772L470.206 372.672L468.586 375.772L469.426 381.292L466.236 384.132L463.416 383.892L461.416 380.372L457.536 380.532L458.666 381.612L453.396 383.182L451.306 382.242L451.606 384.192L448.466 386.582L443.536 383.862L441.636 379.542L429.476 379.982L430.146 375.292L425.696 372.852L427.446 369.692L425.216 367.022L423.736 372.542L420.056 373.762L419.246 371.692L416.966 373.822L413.806 371.312L413.576 374.782L411.566 374.002L411.496 375.582L402.996 371.122L401.056 373.302L401.766 368.872L396.116 363.982L392.926 364.962L392.016 359.312L389.396 357.452L390.706 354.552L385.276 353.712L385.696 350.172L389.706 346.002L392.166 339.952L391.636 337.772L386.636 338.662L387.706 333.442L385.566 331.872L382.956 323.372L387.576 319.592L390.806 322.452L396.986 323.772L399.296 319.892L399.286 317.072L394.686 314.842L394.566 308.692L393.116 307.992L396.926 307.662L393.706 300.352L390.006 300.162L388.916 297.242L385.396 294.912L378.586 297.792L378.116 295.372L373.846 295.452L376.766 292.592L376.466 290.902L375.206 288.062L371.866 286.342L375.296 283.612L376.056 278.902L371.446 277.552L369.816 274.742L366.216 274.592L363.956 270.752L364.446 265.932L361.186 262.622L358.006 263.842L357.436 261.322L353.306 258.712L350.746 261.882L347.976 261.412L344.286 263.462L341.426 262.142L338.876 264.132L336.326 260.662L329.016 257.742L329.246 255.932L326.376 254.412L319.726 255.232L315.786 250.512L316.146 247.822L315.796 247.252L314.286 245.532L317.436 245.512L322.136 239.162L317.726 237.412L319.426 237.652L319.466 233.482L320.276 233.472L323.756 230.302L320.546 227.762L323.406 223.162L325.576 222.992L324.996 217.902L330.146 219.692L328.536 217.022L330.016 215.262L328.406 215.332L328.866 213.312L323.976 208.652L326.886 203.802L329.376 204.012L325.246 195.472L330.366 196.462L333.336 194.032L331.986 190.992L339.636 194.472L338.626 191.282L340.236 187.862L337.966 186.162L336.896 178.702L338.786 179.242L339.896 177.552L340.346 177.702L344.566 174.582Z" fill="url(#paint6_linear_10_3)"/>
<path d="M224.866 369.222L227.966 370.782L226.116 376.162L230.086 377.672L246.806 370.832L255.696 374.762L265.436 376.192L266.926 378.972L268.766 374.442L270.506 374.212L272.656 379.672L277.656 382.522L279.486 385.822L277.056 387.062L277.126 389.982L274.796 391.642L276.556 395.382L275.226 400.862L271.956 403.452L271.216 406.522L268.236 407.262L272.546 412.452L266.906 416.652L269.626 424.142L273.736 425.922L274.036 431.202L263.596 431.672L266.446 439.822L260.216 437.462L260.736 441.692L259.276 443.722L261.096 446.592L258.886 449.672L261.816 452.802L261.076 457.422L262.806 457.692L263.096 460.022L258.576 459.042L251.456 463.162L251.876 464.942L252.256 464.912L244.436 466.262L243.776 467.662L243.216 466.292L240.816 466.882L241.476 473.112L239.096 477.352L237.276 479.922L239.716 480.132L239.766 483.092L237.286 481.822L229.036 486.152L226.506 482.532L223.346 481.632L219.806 473.502L215.636 473.002L212.146 468.442L222.246 463.942L222.636 461.122L220.216 459.122L221.886 455.092L219.786 453.052L217.916 452.392L217.976 454.962L213.436 458.262L206.206 457.412L202.826 459.622L199.536 456.652L197.476 458.412L197.346 452.342L193.296 453.172L188.236 448.882L188.396 446.832L184.716 447.292L182.676 445.002L174.406 443.732L170.556 440.962L172.736 437.762L173.016 437.572L179.076 439.072L179.856 431.842L183.346 425.622L190.966 424.472L190.376 418.532L191.776 417.682L189.566 415.412L193.826 412.372L191.506 409.852L193.376 407.612L197.196 408.592L196.036 402.362L199.436 401.222L200.236 398.582L197.496 397.492L198.466 395.072L202.056 396.552L202.276 391.022L207.296 390.632L205.956 388.992L209.046 388.712L207.436 386.632L207.716 382.062L211.466 379.872L209.316 372.932L212.506 371.552L213.106 369.462L216.866 372.232L224.866 369.222Z" fill="url(#paint7_linear_10_3)"/>
<path d="M473.176 406.152L475.776 409.352L482.476 408.252L485.786 404.862L492.196 406.752L494.476 410.922L490.336 419.502L494.596 419.692L497.556 423.872L503.056 424.352L507.296 428.072L510.236 427.092L513.606 428.552L513.076 435.172L515.896 435.052L516.276 436.442L513.236 437.472L517.086 437.932L514.486 440.392L508.406 439.562L509.236 442.152L506.346 443.262L505.706 445.862L507.936 445.482L512.086 450.802L523.086 449.682L518.386 452.282L518.356 454.152L543.386 456.142L553.366 445.762L557.556 449.372L564.126 444.322L565.866 444.862L565.316 448.372L568.276 450.382H568.716L567.016 454.652L573.886 455.462L573.256 458.732L575.396 459.922L559.376 473.742L520.436 527.762L523.926 531.182L526.906 543.512L526.506 554.152L524.996 555.742L526.946 557.162L524.546 560.912L525.246 561.892L527.476 560.222L526.476 562.442L529.526 562.522L531.986 566.792L535.646 568.222L534.156 570.992L535.636 576.482L533.036 576.962L528.336 572.242L522.946 573.532L517.196 568.222L511.776 569.232L507.086 567.982L503.746 563.782L500.756 564.602L495.106 562.982L494.976 560.152L492.876 560.962L484.276 557.012L483.266 551.202L478.966 544.882L475.356 544.672L471.546 540.852L468.856 542.022L468.406 544.272L464.276 538.842L460.446 538.402L458.826 535.512L449.126 538.722L444.406 536.872L443.956 531.972L445.786 531.102L442.076 526.392L442.926 524.022L439.986 522.152L442.586 516.912L441.856 511.952L439.366 506.662L436.356 506.242L435.246 504.292L429.796 504.152L430.556 500.542L428.696 498.202L434.316 497.022L434.486 493.882L437.546 494.052L438.346 492.492L437.356 490.472L431.596 490.042L429.646 484.652L432.236 480.472L429.726 477.832L432.036 476.112L430.806 474.582L432.806 474.112L432.216 471.372L429.666 470.702L431.436 470.292L429.476 469.742L430.956 463.212L429.076 458.832L433.526 453.622L432.926 449.762L433.176 449.732L433.676 449.372L439.316 443.302L447.446 440.002L447.606 436.682L456.766 434.212L461.276 425.552L466.366 421.362L468.276 422.402L473.176 406.152Z" fill="url(#paint8_linear_10_3)"/>
<path d="M534.056 45.132L542.856 47.832L541.846 49.982L545.906 51.872L544.786 54.762L547.766 56.572L551.036 54.892L556.536 60.622L562.826 61.612L571.936 71.932L574.476 80.962L574.276 84.532L571.656 87.832L573.726 92.062L574.226 101.982L575.936 103.092L575.736 111.542L577.766 114.262L582.516 137.082L591.056 162.452L598.226 174.142L595.446 181.882L599.966 194.212L598.146 196.332L599.486 218.992L587.066 229.592L581.186 229.622L571.076 234.952L564.096 243.222L553.226 261.842L550.366 261.672L549.096 260.022L545.556 261.652L545.036 257.662L541.966 256.992L539.186 253.212L532.986 254.392L527.036 251.852L525.636 253.732L524.246 251.032L516.526 250.952L514.246 247.942L514.926 243.872L512.386 242.052L513.326 238.082L509.106 231.702L505.176 228.962L509.466 224.472L508.906 210.962L504.606 210.152L504.736 211.772L501.456 213.932L500.636 211.752L498.426 211.962L496.206 206.062L499.056 206.002L499.916 204.162L498.016 204.572L497.516 200.962L494.486 200.832L494.226 203.692L483.516 204.482L480.746 198.112L482.866 195.972L480.576 193.692H481.096L473.856 188.962L474.936 185.342L477.506 186.052L476.426 184.342L477.516 182.752L473.076 183.822L469.446 178.352L464.936 178.902L462.626 176.122L463.216 173.332L461.006 168.902L462.136 168.202L458.266 163.022L460.326 163.392L459.366 161.032L460.936 157.842L460.896 158.252L465.056 158.322L462.346 155.922L459.966 156.302L461.856 152.662L458.336 148.442L459.156 146.592L456.556 142.602H457.016L456.676 141.102L457.396 141.142L462.166 139.852L472.786 143.412L476.626 138.222L480.656 136.892L482.976 139.302L503.076 123.082L506.996 120.452L509.936 122.262L509.376 118.962L512.616 118.792L516.916 115.042L518.276 116.772L519.576 112.882L520.636 113.582L521.406 113.182L525.096 110.302L526.006 104.792L529.876 100.272L529.146 95.192L522.206 83.612L518.806 81.472L520.276 77.072L517.676 72.092L514.926 72.582L510.266 66.662L512.906 62.292L519.386 60.272L520.346 58.292L524.006 59.082L528.616 57.322L530.506 52.082L529.366 49.812L532.226 45.392L534.056 45.132Z" fill="url(#paint9_linear_10_3)"/>
<path d="M255.106 0.251953L277.946 13.862L287.216 22.332L286.476 25.912L280.026 16.022L262.806 5.29195L261.096 11.462L265.806 15.172L265.706 21.732L268.596 20.852L268.406 24.132L271.656 30.352L270.456 31.732L267.896 30.872L271.176 32.382L271.496 40.432L275.306 44.592L281.296 45.452L279.216 46.092L281.846 48.682L291.816 51.622L294.586 49.542L298.216 51.802L310.886 50.912L323.966 47.792L337.656 40.862L323.176 49.572L311.796 52.722L313.916 55.132L314.116 59.182L317.826 65.772L313.426 69.392L314.736 71.602L311.676 80.382L316.126 82.402L314.986 84.142L316.136 85.992L318.076 85.052L323.376 87.802L321.756 90.882L323.236 94.062L334.306 91.652L331.316 99.182V99.512L327.276 106.612L328.536 107.682L327.466 110.632L325.326 107.422L319.666 105.962L317.456 107.172L316.476 113.792L311.766 118.822L311.606 123.992L309.316 124.142L306.396 127.532L306.846 130.452L297.626 129.252L292.146 131.182L292.316 129.352L283.956 128.262L282.116 124.422L283.936 118.592L281.606 120.212L276.886 119.072L275.336 121.282L272.146 120.902L272.646 122.752L270.736 123.192L268.346 120.582L268.596 118.122L265.846 118.322L265.136 119.982L253.156 118.452L253.406 114.092L249.246 113.952V112.862L247.316 114.142L246.226 111.722L243.796 112.562L241.456 110.082L237.206 116.162L233.626 112.762L228.326 112.232L230.276 117.382L225.776 119.942L221.306 119.502L218.976 125.472L219.986 128.462L216.066 128.642L216.986 131.582L213.096 128.932L211.046 130.812L208.016 130.122L207.166 126.492L201.706 130.532L199.876 140.102L196.566 138.922L196.326 138.832L194.546 136.162L190.696 135.602L189.376 135.662L185.886 136.362L181.826 134.732L179.196 137.282L175.996 137.302L176.016 134.002L172.906 134.582L169.466 122.972L167.296 113.792L172.566 108.432L168.126 105.132L168.156 101.372L169.496 100.082L174.146 100.812L174.956 97.392L168.496 93.742L168.366 90.102L166.326 87.762L164.786 86.952L164.026 89.522L163.316 89.582L162.966 84.662L163.386 84.152L164.616 80.052L162.726 77.282L164.046 75.492L158.586 65.392L159.546 63.282L167.076 60.432L167.746 58.092L164.676 54.482L164.196 49.522L166.896 48.832L166.476 41.142L165.036 37.812L162.106 36.602L159.296 28.412L169.806 25.702L178.796 17.852L191.866 11.052L234.156 0.841953L255.106 0.251953Z" fill="url(#paint10_linear_10_3)"/>
<path d="M277.656 382.522L289.316 380.442L290.876 382.012L293.056 378.292L295.036 377.962L302.206 384.132L304.226 383.552L306.286 386.792L308.016 386.022L311.646 388.962L314.336 387.322L313.926 384.592L317.816 383.312L317.296 385.532L319.726 388.502L322.126 386.592L323.416 387.432L327.476 393.352L328.576 398.572L334.156 396.592L339.016 399.102L339.386 402.102L343.956 401.012L349.236 405.082L349.016 406.522L346.786 405.582L344.106 411.562L341.216 410.782L342.646 414.762L349.786 415.572L351.866 417.302L350.136 418.412L350.296 420.652L354.426 421.282L353.786 424.252L350.516 424.422L346.166 430.722L353.066 432.152L353.766 434.742L356.066 435.482L357.386 438.322L352.996 438.462L352.916 440.352L350.076 441.742L341.516 441.212L338.376 444.102L334.396 444.832L330.536 443.742L328.456 445.722L328.956 448.342L326.446 447.762L326.126 447.862L328.596 449.732L328.156 452.732L320.556 453.122L317.146 455.802L318.216 458.842L324.416 461.942L323.736 464.072L319.306 465.772L320.626 467.382L319.096 469.552L314.986 470.132L313.926 472.932L313.646 471.042H313.316L310.986 476.322L312.176 477.192L308.296 477.822L304.826 483.662L305.056 486.972L303.166 488.172L305.316 489.252H306.066L307.146 489.212H307.796L310.026 487.792L311.156 488.762L308.946 496.552L316.336 495.942L318.316 503.662L325.586 504.832L326.256 508.052L321.646 512.392L327.606 514.822L326.776 520.112L320.836 524.272L320.176 527.242L314.146 527.652L311.896 534.882L309.586 536.632L309.956 538.872L305.546 539.712L302.646 538.382L300.266 540.402L296.876 540.442L296.396 530.302L288.106 528.452L289.446 525.962L286.296 514.062L282.296 514.132L280.286 511.442L275.186 509.752L271.836 499.832L273.946 496.662L271.546 494.892L271.966 491.002L266.866 492.642L263.256 489.422L257.376 488.422L258.516 489.762L256.486 491.602L253.936 486.922L250.116 486.212L249.626 483.742L246.406 485.232L244.086 484.082L242.456 479.422L239.096 477.352L241.476 473.112L240.816 466.882L243.216 466.292L243.776 467.662L244.436 466.262L252.256 464.912L251.876 464.942L251.456 463.162L258.576 459.042L263.096 460.022L262.806 457.692L261.076 457.422L261.816 452.802L258.886 449.672L261.096 446.592L259.276 443.722L260.736 441.692L260.216 437.462L266.446 439.822L263.596 431.672L274.036 431.202L273.736 425.922L269.626 424.142L266.906 416.652L272.546 412.452L268.236 407.262L271.216 406.522L271.956 403.452L275.226 400.862L276.556 395.382L274.796 391.642L277.126 389.982L277.056 387.062L279.486 385.822L277.656 382.522Z" fill="url(#paint11_linear_10_3)"/>
<path d="M385.276 353.712L390.706 354.552L389.396 357.452L392.016 359.312L392.926 364.962L396.116 363.982L401.766 368.872L401.056 373.302L402.996 371.122L411.496 375.582L411.566 374.002L413.576 374.782L413.806 371.312L416.966 373.822L419.246 371.692L420.056 373.762L423.736 372.542L425.216 367.022L427.446 369.692L425.696 372.852L430.146 375.292L429.476 379.982L441.636 379.542L443.536 383.862L448.466 386.582L451.606 384.192L451.306 382.242L453.396 383.182L458.666 381.612L457.536 380.532L461.416 380.372L463.416 383.892L466.236 384.132L469.426 381.292L471.586 403.222L473.176 406.152L468.276 422.402L466.366 421.362L461.276 425.552L456.766 434.212L447.606 436.682L447.446 440.002L439.316 443.302L433.676 449.372L433.176 449.732L432.926 449.762L430.946 452.132L428.376 449.782L423.726 453.422L413.676 454.442L410.146 457.602L407.326 456.062L400.496 463.452L384.596 465.332L384.316 463.672L382.116 463.412L383.486 460.852L380.036 457.582L381.606 455.562L377.376 452.492L377.196 449.942L379.876 448.752L375.796 442.272L375.766 438.882L358.386 434.092L356.066 435.482L353.766 434.742L353.066 432.152L346.166 430.722L350.516 424.422L353.786 424.252L354.426 421.282L350.296 420.652L350.136 418.412L351.866 417.302L349.786 415.572L342.646 414.762L341.216 410.782L344.106 411.562L346.786 405.582L349.016 406.522L349.236 405.082L343.956 401.012L346.396 397.652L346.316 397.412L347.356 397.292L347.826 396.942L348.856 395.862L348.946 395.872L349.796 394.472V393.502L348.916 389.162L351.816 382.092L357.066 388.232L361.266 390.402L363.056 381.172L358.386 379.712L358.286 373.622L360.806 371.302L359.496 368.242L362.366 367.002L368.486 369.442L370.076 367.722L373.776 368.072L375.216 367.082L373.846 363.082L374.936 362.742L377.616 364.492L379.336 362.862L381.716 364.872L383.086 361.682L381.796 357.692L384.416 356.722L385.276 353.712Z" fill="url(#paint12_linear_10_3)"/>
<path d="M349.886 42.3419L397.656 49.8019L447.506 54.9919L529.366 49.8119L530.506 52.0819L528.616 57.3219L524.006 59.0819L520.346 58.2919L519.386 60.2719L512.906 62.2919L510.266 66.6619L514.926 72.5819L517.676 72.0919L520.276 77.0719L518.806 81.4719L522.206 83.6119L529.146 95.1919L529.876 100.272L526.006 104.792L525.096 110.302L521.406 113.182L520.636 113.582L519.576 112.882L518.276 116.772L516.916 115.042L512.616 118.792L509.376 118.962L509.936 122.262L506.996 120.452L503.076 123.082L482.976 139.302L480.656 136.892L476.626 138.222L472.786 143.412L462.166 139.852L457.396 141.142L456.676 141.102L447.686 142.652L447.386 145.032L442.256 147.152L436.916 146.112L423.436 155.992L420.006 153.072L416.196 153.422L414.576 154.722L415.566 157.512L412.386 157.282L411.066 160.332L402.996 158.312L399.236 164.532L392.916 167.212L386.976 165.092L382.136 168.842L382.796 173.532L378.456 176.102L369.936 174.322L367.746 175.392L365.326 173.162L358.086 175.122L353.916 172.352L354.466 168.902L354.186 168.352L349.076 171.372L349.736 175.362L344.566 174.582L343.086 169.372H343.406L343.316 166.972L340.156 166.232L339.866 163.822L342.636 162.442L339.936 154.782L330.806 155.552L329.376 151.842L325.446 152.612L325.606 150.792L321.766 147.532L317.466 147.922L316.636 150.022L314.736 148.652L310.546 137.772L310.266 131.972L306.846 130.442L306.406 127.512L309.326 124.122L311.616 123.972L311.776 118.802L316.486 113.762L317.476 107.152L319.676 105.942L325.336 107.412L327.476 110.612L328.546 107.662L327.286 106.592L331.326 99.4919V99.1619L334.306 91.6319L323.236 94.0419L321.756 90.8619L323.376 87.7919L318.066 85.0419L316.126 85.9819L314.976 84.1419L316.116 82.4019L311.666 80.3719L314.726 71.5919L313.416 69.3919L317.816 65.7619L314.116 59.1819L321.056 60.2119L322.776 58.2519L320.086 64.3419L321.136 64.9119L322.376 60.3619L328.396 54.3919L339.086 50.6719L343.776 42.6819L349.886 42.3419Z" fill="url(#paint13_linear_10_3)"/>
<path d="M169.476 122.952L172.906 134.562L176.026 133.972L176.006 137.272L179.206 137.252L181.836 134.702L185.896 136.332L189.386 135.632L190.706 135.572L194.546 136.142L196.326 138.812L196.566 138.902L199.876 140.082L191.036 151.512L192.226 154.972L193.126 153.532L196.616 154.702L202.656 162.772L201.176 166.862L195.666 168.122L197.306 169.602L196.666 174.292L199.886 175.602L197.496 176.802L198.146 180.762L195.796 182.202L196.236 188.122L195.936 188.182L194.456 190.342L195.356 192.522L200.166 191.612L207.646 197.182L206.746 211.242L200.966 211.562L200.636 214.482L205.686 217.282L204.726 222.002L207.906 222.862L211.306 219.612L214.536 219.182L214.446 224.812L217.586 225.242L217.416 230.002L222.576 224.382L222.986 226.682L224.366 224.362L227.146 226.522L229.446 225.972L232.296 231.592L233.486 230.582L235.456 233.532L236.776 232.442L236.296 235.912L242.866 234.972L242.676 238.332L249.006 239.802L249.496 241.982L252.946 242.172L259.466 236.062L260.706 243.322L265.326 242.702L266.936 239.902L268.956 240.452L271.226 244.042L273.216 243.492L276.646 245.242L277.146 248.072L278.756 247.442L278.536 250.282L280.726 250.502L283.096 256.922L292.736 253.602L293.316 250.242L296.586 252.702L296.206 254.612L300.916 256.952L299.926 263.002L304.186 263.552L304.476 265.992L302.446 267.362L303.506 269.482L297.666 267.852L293.706 269.432L292.496 275.152L294.666 277.152L293.656 281.042L288.386 281.172L287.516 283.872L282.326 282.102L280.406 283.282L281.226 292.852L285.286 296.602L279.606 303.312L279.046 307.292L273.346 305.152L268.516 306.322L267.756 304.092L265.916 304.702L265.726 307.762L263.816 307.302L264.106 309.452L262.216 310.742L263.376 313.282L261.746 314.952L262.176 318.952L258.646 323.452L260.356 324.192L258.326 329.142L260.086 329.822L258.836 335.842L260.296 341.522L256.946 347.032L251.536 343.872L248.736 344.662L250.176 346.632L249.406 349.552L245.976 349.932L244.896 352.712L242.136 353.222L243.996 361.972L248.276 361.402L246.806 370.832L230.086 377.672L226.116 376.162L227.966 370.782L224.866 369.222L221.616 363.952L221.816 355.512L219.596 354.312L221.386 347.572L209.446 348.612L207.266 338.702L211.396 335.482L209.956 331.812V331.012L204.606 326.872L194.196 324.902L189.176 326.542L188.496 332.622L182.586 331.832L179.946 332.702L179.676 334.732L173.756 334.782L163.656 329.402L161.756 324.842L153.926 323.592L155.416 318.922L153.216 314.702L148.356 311.382L140.626 311.302L138.416 304.752L132.956 300.152L129.956 299.352L127.206 302.862L124.816 300.702L121.136 300.502L123.346 297.382L122.466 290.702L116.056 292.552L112.406 287.712L114.236 285.152L113.706 282.882L111.456 281.842L110.176 283.552L105.906 279.072L107.756 275.662L106.226 264.122L109.186 251.282L103.636 246.502L104.416 244.752L105.806 247.462L108.906 245.472L107.876 241.122L104.666 237.922L106.096 235.442L101.826 229.302L104.076 222.552L102.916 219.152L111.586 217.132L110.946 209.942L108.346 208.812L109.166 206.342L113.436 204.282L112.646 193.542L112.476 193.422L112.006 190.342V190.002L112.606 185.842L122.056 189.232L131.086 184.902L134.136 185.692L133.406 184.662L136.976 181.182L135.876 177.252L138.616 176.222L139.796 171.842L141.086 173.332L143.586 170.542L146.146 171.322L147.256 166.612L148.956 167.092L149.076 165.442L153.846 167.522L153.266 162.072L158.176 158.032L153.646 153.762L149.006 152.492L145.816 149.472L143.976 150.062L142.306 141.572L142.746 140.432L144.976 142.112L154.606 140.502L159.026 136.892L160.916 126.572L165.226 124.372L166.396 126.222L169.476 122.952Z" fill="url(#paint14_linear_10_3)"/>
<path d="M11.786 102.232L16.576 102.792L13.596 104.942L13.616 107.352L10.066 102.252L11.786 102.232ZM17.686 102.052L18.256 103.392L16.206 104.362L17.686 102.052ZM13.056 101.042L14.776 102.492L11.976 102.472L13.056 101.042ZM15.236 99.782L15.146 102.242L13.926 100.532L15.236 99.782ZM8.05601 95.542L9.86601 95.372L7.86601 97.942L13.466 107.432L5.84601 101.332L5.93601 97.872L4.15601 96.572L8.05601 95.542ZM39.026 91.062L38.986 92.532L35.766 92.852L36.196 89.782L39.026 91.062ZM39.646 85.542L35.246 88.202L35.306 94.072L31.566 98.522L28.786 108.112L27.506 102.912L18.896 101.562L19.456 97.562L18.776 99.432L16.256 98.602L10.516 102.072L11.336 100.852L8.48601 98.262L10.216 95.662L17.096 96.092L23.216 91.402L39.646 85.542ZM159.296 28.402L162.106 36.592L165.036 37.802L166.476 41.132L166.896 48.822L164.196 49.512L164.676 54.472L167.746 58.082L167.076 60.422L159.546 63.272L158.586 65.382L164.046 75.482L162.726 77.272L164.616 80.042L163.386 84.142L162.966 84.652L163.316 89.572L164.026 89.512L164.786 86.942L166.326 87.752L168.366 90.092L168.496 93.732L174.956 97.382L174.146 100.802L169.496 100.072L168.156 101.362L168.126 105.122L172.566 108.422L167.296 113.782L169.466 122.962L166.386 126.232L165.216 124.382L160.916 126.582L159.016 136.912L154.606 140.512L144.976 142.132L142.746 140.442L142.296 141.592L143.976 150.072L145.816 149.492L149.006 152.502L153.646 153.782L158.166 158.042L153.256 162.082L153.846 167.532L149.076 165.442L148.956 167.092L147.256 166.612L146.136 171.322L143.586 170.552L141.086 173.332L139.796 171.842L138.616 176.232L135.886 177.262L136.986 181.202L133.406 184.682L134.146 185.712L131.086 184.922L122.056 189.242L112.606 185.862L114.106 179.522L105.986 177.582L106.416 179.932L103.326 181.302L103.866 183.272L101.346 183.782L103.026 185.932L99.776 187.252L100.766 189.332L98.476 190.622L96.066 189.402L93.426 191.632L87.726 188.442L79.546 191.262L76.216 195.052L71.666 194.042L73.816 200.522L58.876 206.902L56.666 204.372L54.106 206.172L48.826 201.792L46.786 204.542L48.836 206.452L44.956 207.662L45.736 210.672L41.766 213.872L38.516 225.402L36.256 226.842L31.546 224.282L29.456 226.052L29.526 229.642L21.196 224.132L14.326 215.182L6.19601 208.562L0.346008 206.332L2.65601 201.662L1.65601 193.922L13.856 184.712L16.456 175.712L15.826 169.772L20.136 163.322L17.746 158.692L14.436 139.912L11.606 134.572L12.186 127.022L10.186 125.262L9.08601 118.752L11.676 118.122L10.286 114.082L13.126 114.982L17.766 120.632L23.616 121.852L29.356 129.252L30.686 123.072L27.726 122.932L25.776 118.142L27.446 111.942L30.456 111.452L29.896 105.872L32.636 98.332L37.046 93.752L39.196 95.332L39.466 90.582L40.886 90.182L39.546 88.152L41.986 84.462L37.226 85.242L71.876 72.332L84.446 70.272L105.746 62.672L120.896 59.292L131.076 51.162L146.976 31.562L159.296 28.402Z" fill="url(#paint15_linear_10_3)"/>


<path d="M411.907 269.173C400.177 252.305 398 250.574 398 244.375C398 235.884 404.94 229 413.5 229C422.06 229 429 235.884 429 244.375C429 250.574 426.823 252.305 415.093 269.173C414.323 270.276 412.677 270.276 411.907 269.173ZM413.5 250.781C417.067 250.781 419.958 247.913 419.958 244.375C419.958 240.837 417.067 237.969 413.5 237.969C409.933 237.969 407.042 240.837 407.042 244.375C407.042 247.913 409.933 250.781 413.5 250.781Z" fill="white"/>
<path d="M517.907 366.173C506.177 349.305 504 347.574 504 341.375C504 332.884 510.94 326 519.5 326C528.06 326 535 332.884 535 341.375C535 347.574 532.823 349.305 521.093 366.173C520.323 367.276 518.677 367.276 517.907 366.173ZM519.5 347.781C523.067 347.781 525.958 344.913 525.958 341.375C525.958 337.837 523.067 334.969 519.5 334.969C515.933 334.969 513.042 337.837 513.042 341.375C513.042 344.913 515.933 347.781 519.5 347.781Z" fill="white"/>
<path d="M168.907 386.173C157.177 369.305 155 367.574 155 361.375C155 352.884 161.94 346 170.5 346C179.06 346 186 352.884 186 361.375C186 367.574 183.823 369.305 172.093 386.173C171.323 387.276 169.677 387.276 168.907 386.173ZM170.5 367.781C174.067 367.781 176.958 364.913 176.958 361.375C176.958 357.837 174.067 354.969 170.5 354.969C166.933 354.969 164.042 357.837 164.042 361.375C164.042 364.913 166.933 367.781 170.5 367.781Z" fill="white"/>
<path d="M230.907 183.173C219.177 166.305 217 164.574 217 158.375C217 149.884 223.94 143 232.5 143C241.06 143 248 149.884 248 158.375C248 164.574 245.823 166.305 234.093 183.173C233.323 184.276 231.677 184.276 230.907 183.173ZM232.5 164.781C236.067 164.781 238.958 161.913 238.958 158.375C238.958 154.837 236.067 151.969 232.5 151.969C228.933 151.969 226.042 154.837 226.042 158.375C226.042 161.913 228.933 164.781 232.5 164.781Z" fill="white"/>
<path d="M31.9071 151.173C20.1773 134.305 18 132.574 18 126.375C18 117.884 24.9396 111 33.5 111C42.0604 111 49 117.884 49 126.375C49 132.574 46.8227 134.305 35.0929 151.173C34.3232 152.276 32.6767 152.276 31.9071 151.173ZM33.5 132.781C37.0669 132.781 39.9583 129.913 39.9583 126.375C39.9583 122.837 37.0669 119.969 33.5 119.969C29.9331 119.969 27.0417 122.837 27.0417 126.375C27.0417 129.913 29.9331 132.781 33.5 132.781Z" fill="white"/>
<path d="M400.907 417.173C389.177 400.305 387 398.574 387 392.375C387 383.884 393.94 377 402.5 377C411.06 377 418 383.884 418 392.375C418 398.574 415.823 400.305 404.093 417.173C403.323 418.276 401.677 418.276 400.907 417.173ZM402.5 398.781C406.067 398.781 408.958 395.913 408.958 392.375C408.958 388.837 406.067 385.969 402.5 385.969C398.933 385.969 396.042 388.837 396.042 392.375C396.042 395.913 398.933 398.781 402.5 398.781Z" fill="white"/>
<path d="M365.907 490.173C354.177 473.305 352 471.574 352 465.375C352 456.884 358.94 450 367.5 450C376.06 450 383 456.884 383 465.375C383 471.574 380.823 473.305 369.093 490.173C368.323 491.276 366.677 491.276 365.907 490.173ZM367.5 471.781C371.067 471.781 373.958 468.913 373.958 465.375C373.958 461.837 371.067 458.969 367.5 458.969C363.933 458.969 361.042 461.837 361.042 465.375C361.042 468.913 363.933 471.781 367.5 471.781Z" fill="white"/>
<path d="M471.907 479.173C460.177 462.305 458 460.574 458 454.375C458 445.884 464.94 439 473.5 439C482.06 439 489 445.884 489 454.375C489 460.574 486.823 462.305 475.093 479.173C474.323 480.276 472.677 480.276 471.907 479.173ZM473.5 460.781C477.067 460.781 479.958 457.913 479.958 454.375C479.958 450.837 477.067 447.969 473.5 447.969C469.933 447.969 467.042 450.837 467.042 454.375C467.042 457.913 469.933 460.781 473.5 460.781Z" fill="white"/>
<path d="M288.907 458.173C277.177 441.305 275 439.574 275 433.375C275 424.884 281.94 418 290.5 418C299.06 418 306 424.884 306 433.375C306 439.574 303.823 441.305 292.093 458.173C291.323 459.276 289.677 459.276 288.907 458.173ZM290.5 439.781C294.067 439.781 296.958 436.913 296.958 433.375C296.958 429.837 294.067 426.969 290.5 426.969C286.933 426.969 284.042 429.837 284.042 433.375C284.042 436.913 286.933 439.781 290.5 439.781Z" fill="white"/>
<path d="M327.907 310.173C316.177 293.305 314 291.574 314 285.375C314 276.884 320.94 270 329.5 270C338.06 270 345 276.884 345 285.375C345 291.574 342.823 293.305 331.093 310.173C330.323 311.276 328.677 311.276 327.907 310.173ZM329.5 291.781C333.067 291.781 335.958 288.913 335.958 285.375C335.958 281.837 333.067 278.969 329.5 278.969C325.933 278.969 323.042 281.837 323.042 285.375C323.042 288.913 325.933 291.781 329.5 291.781Z" fill="white"/>
<path d="M255.907 47.1728C244.177 30.3052 242 28.5741 242 22.375C242 13.8836 248.94 7 257.5 7C266.06 7 273 13.8836 273 22.375C273 28.5741 270.823 30.3052 259.093 47.1728C258.323 48.2758 256.677 48.2757 255.907 47.1728ZM257.5 28.7812C261.067 28.7812 263.958 25.9131 263.958 22.375C263.958 18.8369 261.067 15.9687 257.5 15.9687C253.933 15.9687 251.042 18.8369 251.042 22.375C251.042 25.9131 253.933 28.7812 257.5 28.7812Z" fill="white"/>
<path d="M396.907 110.173C385.177 93.3052 383 91.5741 383 85.375C383 76.8836 389.94 70 398.5 70C407.06 70 414 76.8836 414 85.375C414 91.5741 411.823 93.3052 400.093 110.173C399.323 111.276 397.677 111.276 396.907 110.173ZM398.5 91.7812C402.067 91.7812 404.958 88.9131 404.958 85.375C404.958 81.8369 402.067 78.9687 398.5 78.9687C394.933 78.9687 392.042 81.8369 392.042 85.375C392.042 88.9131 394.933 91.7812 398.5 91.7812Z" fill="white"/>
<path d="M557.907 183.173C546.177 166.305 544 164.574 544 158.375C544 149.884 550.94 143 559.5 143C568.06 143 575 149.884 575 158.375C575 164.574 572.823 166.305 561.093 183.173C560.323 184.276 558.677 184.276 557.907 183.173ZM559.5 164.781C563.067 164.781 565.958 161.913 565.958 158.375C565.958 154.837 563.067 151.969 559.5 151.969C555.933 151.969 553.042 154.837 553.042 158.375C553.042 161.913 555.933 164.781 559.5 164.781Z" fill="white"/>
<path d="M292.907 204.173C281.177 187.305 279 185.574 279 179.375C279 170.884 285.94 164 294.5 164C303.06 164 310 170.884 310 179.375C310 185.574 307.823 187.305 296.093 204.173C295.323 205.276 293.677 205.276 292.907 204.173ZM294.5 185.781C298.067 185.781 300.958 182.913 300.958 179.375C300.958 175.837 298.067 172.969 294.5 172.969C290.933 172.969 288.042 175.837 288.042 179.375C288.042 182.913 290.933 185.781 294.5 185.781Z" fill="white"/>
<path d="M156.907 250.173C145.177 233.305 143 231.574 143 225.375C143 216.884 149.94 210 158.5 210C167.06 210 174 216.884 174 225.375C174 231.574 171.823 233.305 160.093 250.173C159.323 251.276 157.677 251.276 156.907 250.173ZM158.5 231.781C162.067 231.781 164.958 228.913 164.958 225.375C164.958 221.837 162.067 218.969 158.5 218.969C154.933 218.969 152.042 221.837 152.042 225.375C152.042 228.913 154.933 231.781 158.5 231.781Z" fill="white"/>
<path d="M80.9071 302.173C69.1773 285.305 67 283.574 67 277.375C67 268.884 73.9396 262 82.5 262C91.0604 262 98 268.884 98 277.375C98 283.574 95.8227 285.305 84.0929 302.173C83.3232 303.276 81.6767 303.276 80.9071 302.173ZM82.5 283.781C86.0669 283.781 88.9583 280.913 88.9583 277.375C88.9583 273.837 86.0669 270.969 82.5 270.969C78.9331 270.969 76.0417 273.837 76.0417 277.375C76.0417 280.913 78.9331 283.781 82.5 283.781Z" fill="white"/>
</g>
<defs>
<linearGradient id="paint0_linear_10_3" x1="133.991" y1="309.372" x2="133.991" y2="474.152" gradientUnits="userSpaceOnUse">
<stop stop-color="#F35B00"/>
<stop offset="1" stop-color="#6B2800"/>
</linearGradient>
<linearGradient id="paint1_linear_10_3" x1="267.801" y1="110.042" x2="267.801" y2="256.952" gradientUnits="userSpaceOnUse">
<stop stop-color="#F35B00"/>
<stop offset="1" stop-color="#6B2800"/>
</linearGradient>
<linearGradient id="paint2_linear_10_3" x1="320.716" y1="250.512" x2="320.716" y2="402.102" gradientUnits="userSpaceOnUse">
<stop stop-color="#F35B00"/>
<stop offset="1" stop-color="#6B2800"/>
</linearGradient>
<linearGradient id="paint3_linear_10_3" x1="535.061" y1="261.672" x2="535.061" y2="459.922" gradientUnits="userSpaceOnUse">
<stop stop-color="#F35B00"/>
<stop offset="1" stop-color="#6B2800"/>
</linearGradient>
<linearGradient id="paint4_linear_10_3" x1="83.036" y1="177.562" x2="83.036" y2="352.532" gradientUnits="userSpaceOnUse">
<stop stop-color="#F35B00"/>
<stop offset="1" stop-color="#6B2800"/>
</linearGradient>
<linearGradient id="paint5_linear_10_3" x1="374.476" y1="434.092" x2="374.476" y2="560.552" gradientUnits="userSpaceOnUse">
<stop stop-color="#F35B00"/>
<stop offset="1" stop-color="#6B2800"/>
</linearGradient>
<linearGradient id="paint6_linear_10_3" x1="432.326" y1="141.102" x2="432.326" y2="386.582" gradientUnits="userSpaceOnUse">
<stop stop-color="#F35B00"/>
<stop offset="1" stop-color="#6B2800"/>
</linearGradient>
<linearGradient id="paint7_linear_10_3" x1="225.021" y1="369.222" x2="225.021" y2="486.152" gradientUnits="userSpaceOnUse">
<stop stop-color="#F35B00"/>
<stop offset="1" stop-color="#6B2800"/>
</linearGradient>
<linearGradient id="paint8_linear_10_3" x1="502.046" y1="404.862" x2="502.046" y2="576.962" gradientUnits="userSpaceOnUse">
<stop stop-color="#F35B00"/>
<stop offset="1" stop-color="#6B2800"/>
</linearGradient>
<linearGradient id="paint9_linear_10_3" x1="528.261" y1="45.132" x2="528.261" y2="261.842" gradientUnits="userSpaceOnUse">
<stop stop-color="#F35B00"/>
<stop offset="1" stop-color="#6B2800"/>
</linearGradient>
<linearGradient id="paint10_linear_10_3" x1="248.121" y1="0.251953" x2="248.121" y2="140.102" gradientUnits="userSpaceOnUse">
<stop stop-color="#F35B00"/>
<stop offset="1" stop-color="#6B2800"/>
</linearGradient>
<linearGradient id="paint11_linear_10_3" x1="298.241" y1="377.962" x2="298.241" y2="540.442" gradientUnits="userSpaceOnUse">
<stop stop-color="#F35B00"/>
<stop offset="1" stop-color="#6B2800"/>
</linearGradient>
<linearGradient id="paint12_linear_10_3" x1="407.196" y1="353.712" x2="407.196" y2="465.332" gradientUnits="userSpaceOnUse">
<stop stop-color="#F35B00"/>
<stop offset="1" stop-color="#6B2800"/>
</linearGradient>
<linearGradient id="paint13_linear_10_3" x1="418.456" y1="42.3419" x2="418.456" y2="176.102" gradientUnits="userSpaceOnUse">
<stop stop-color="#F35B00"/>
<stop offset="1" stop-color="#6B2800"/>
</linearGradient>
<linearGradient id="paint14_linear_10_3" x1="203.151" y1="122.952" x2="203.151" y2="377.672" gradientUnits="userSpaceOnUse">
<stop stop-color="#F35B00"/>
<stop offset="1" stop-color="#6B2800"/>
</linearGradient>
<linearGradient id="paint15_linear_10_3" x1="87.651" y1="28.402" x2="87.651" y2="229.642" gradientUnits="userSpaceOnUse">
<stop stop-color="#F35B00"/>
<stop offset="1" stop-color="#6B2800"/>
</linearGradient>
<clipPath id="clip0_10_3">
<rect width="612.757" height="577.232" fill="white"/>
</clipPath>
</defs>
</svg>
